<svg width="216" height="89" viewBox="0 0 216 89" fill="none" xmlns="http://www.w3.org/2000/svg">
<rect width="216" height="89" fill="#CEE0FF"/>
<g id="&#234;&#180;&#128;&#235;&#166;&#172;&#236;&#158;&#144;">
<path d="M-1253.02 -229.943C-1253.02 -232.736 -1250.76 -235 -1247.96 -235H2767.92C2770.72 -235 2772.98 -232.736 2772.98 -229.943V975.943C2772.98 978.736 2770.72 981 2767.92 981H-1247.96C-1250.76 981 -1253.02 978.736 -1253.02 975.943V-229.943Z" fill="white"/>
<path d="M-1247.96 -235V-232.471H2767.92V-235V-237.529H-1247.96V-235ZM2772.98 -229.943H2770.45V975.943H2772.98H2775.51V-229.943H2772.98ZM2767.92 981V978.471H-1247.96V981V983.529H2767.92V981ZM-1253.02 975.943H-1250.49V-229.943H-1253.02H-1255.55V975.943H-1253.02ZM-1247.96 981V978.471C-1249.36 978.471 -1250.49 977.339 -1250.49 975.943H-1253.02H-1255.55C-1255.55 980.132 -1252.15 983.529 -1247.96 983.529V981ZM2772.98 975.943H2770.45C2770.45 977.339 2769.32 978.471 2767.92 978.471V981V983.529C2772.11 983.529 2775.51 980.132 2775.51 975.943H2772.98ZM2767.92 -235V-232.471C2769.32 -232.471 2770.45 -231.339 2770.45 -229.943H2772.98H2775.51C2775.51 -234.132 2772.11 -237.529 2767.92 -237.529V-235ZM-1247.96 -235V-237.529C-1252.15 -237.529 -1255.55 -234.132 -1255.55 -229.943H-1253.02H-1250.49C-1250.49 -231.339 -1249.36 -232.471 -1247.96 -232.471V-235Z" fill="black" fill-opacity="0.1"/>
<g id="Html &#226;&#134;&#146; Body">
<rect width="1280" height="1024" transform="translate(-1029.02 -139)" fill="white"/>
<rect width="1280" height="1024" transform="translate(-1029.02 -139)" fill="#0D0F14"/>
<g id="Main Content Area">
<g id="Section - Right: Control &#38; Notification Panel (25%)">
<g id="Top: Action Buttons">
<rect x="-11" y="-51" width="237.98" height="223.6" rx="12" fill="#1E2A44"/>
<rect x="-10.5" y="-50.5" width="236.98" height="222.6" rx="11.5" stroke="#7BA7F5" stroke-opacity="0.1"/>
<g id="Button" filter="url(#filter0_d_0_1)">
<rect x="14" y="10" width="187.98" height="60.8" rx="8" fill="#7BA7F5" shape-rendering="crispEdges"/>
<g id="Group 1">
<g id="Container">
<path id="Icon" d="M32.98 49.39C31.88 49.39 30.9383 48.9983 30.155 48.215C29.3716 47.4317 28.98 46.49 28.98 45.39C28.98 44.29 29.3716 43.3483 30.155 42.565C30.9383 41.7817 31.88 41.39 32.98 41.39C33.3633 41.39 33.7175 41.4358 34.0425 41.5275C34.3675 41.6192 34.68 41.7567 34.98 41.94V31.39H40.98V35.39H36.98V45.39C36.98 46.49 36.5883 47.4317 35.805 48.215C35.0216 48.9983 34.08 49.39 32.98 49.39Z" fill="#002F65"/>
</g>
<path id="&#235;&#134;&#128;&#236;&#157;&#180;&#235;&#176;&#169; &#237;&#129;&#180;&#235;&#158;&#152;&#236;&#139;&#157; &#236;&#158;&#172;&#236;&#131;&#157;" d="M61.8186 35.872H71.8186V37.232H61.8186V35.872ZM60.1066 38.608H73.3546V39.952H60.1066V38.608ZM61.8186 32.88H63.4666V36.592H61.8186V32.88ZM61.6746 40.992H71.7226V44.576H63.3866V46.24H61.7066V43.376H70.0426V42.272H61.6746V40.992ZM61.7066 45.856H72.1866V47.136H61.7066V45.856ZM65.8986 36.688H67.5626V39.376H65.8986V36.688ZM85.1774 32.688H86.8574V47.344H85.1774V32.688ZM79.0814 33.76C79.8067 33.76 80.452 33.9733 81.0174 34.4C81.5934 34.8267 82.0414 35.424 82.3614 36.192C82.6814 36.96 82.8414 37.8667 82.8414 38.912C82.8414 39.968 82.6814 40.8853 82.3614 41.664C82.0414 42.432 81.5934 43.0293 81.0174 43.456C80.452 43.872 79.8067 44.08 79.0814 44.08C78.356 44.08 77.7054 43.872 77.1294 43.456C76.564 43.0293 76.116 42.432 75.7854 41.664C75.4654 40.8853 75.3054 39.968 75.3054 38.912C75.3054 37.8667 75.4654 36.96 75.7854 36.192C76.116 35.424 76.564 34.8267 77.1294 34.4C77.7054 33.9733 78.356 33.76 79.0814 33.76ZM79.0814 35.28C78.6547 35.28 78.276 35.424 77.9454 35.712C77.6254 36 77.3747 36.416 77.1934 36.96C77.012 37.504 76.9214 38.1547 76.9214 38.912C76.9214 39.68 77.012 40.336 77.1934 40.88C77.3747 41.424 77.6254 41.8453 77.9454 42.144C78.276 42.432 78.6547 42.576 79.0814 42.576C79.508 42.576 79.8814 42.432 80.2014 42.144C80.5214 41.8453 80.772 41.424 80.9534 40.88C81.1347 40.336 81.2254 39.68 81.2254 38.912C81.2254 38.1547 81.1347 37.504 80.9534 36.96C80.772 36.416 80.5214 36 80.2014 35.712C79.8814 35.424 79.508 35.28 79.0814 35.28ZM96.2481 41.76C97.2508 41.76 98.1148 41.872 98.8401 42.096C99.5654 42.32 100.125 42.64 100.52 43.056C100.915 43.4613 101.112 43.9573 101.112 44.544C101.112 45.12 100.915 45.616 100.52 46.032C100.125 46.448 99.5654 46.7627 98.8401 46.976C98.1148 47.2 97.2508 47.312 96.2481 47.312C95.2454 47.312 94.3761 47.2 93.6401 46.976C92.9148 46.7627 92.3548 46.448 91.9601 46.032C91.5761 45.616 91.3841 45.12 91.3841 44.544C91.3841 43.9573 91.5761 43.4613 91.9601 43.056C92.3548 42.64 92.9148 42.32 93.6401 42.096C94.3761 41.872 95.2454 41.76 96.2481 41.76ZM96.2481 43.088C95.5761 43.088 95.0001 43.1467 94.5201 43.264C94.0401 43.3707 93.6721 43.5307 93.4161 43.744C93.1601 43.9573 93.0321 44.2187 93.0321 44.528C93.0321 44.8587 93.1601 45.1307 93.4161 45.344C93.6721 45.5573 94.0401 45.7227 94.5201 45.84C95.0001 45.9467 95.5761 46 96.2481 46C96.9308 46 97.5068 45.9467 97.9761 45.84C98.4561 45.7227 98.8241 45.5573 99.0801 45.344C99.3361 45.1307 99.4641 44.8587 99.4641 44.528C99.4641 44.2187 99.3361 43.9573 99.0801 43.744C98.8241 43.5307 98.4561 43.3707 97.9761 43.264C97.5068 43.1467 96.9308 43.088 96.2481 43.088ZM99.2881 32.704H100.952V41.408H99.2881V32.704ZM100.504 36.256H103.016V37.648H100.504V36.256ZM90.0561 33.616H91.7201V35.648H95.2881V33.616H96.9521V40.416H90.0561V33.616ZM91.7201 36.96V39.088H95.2881V36.96H91.7201ZM110.161 33.312H119.505V34.624H110.161V33.312ZM118.449 33.312H120.097V34.496C120.097 35.1253 120.081 35.8027 120.049 36.528C120.017 37.2533 119.9 38.0747 119.697 38.992L118.049 38.832C118.252 37.9253 118.369 37.1307 118.401 36.448C118.433 35.7653 118.449 35.1147 118.449 34.496V33.312ZM118.945 35.76V36.928L109.969 37.312L109.761 36.016L118.945 35.76ZM108.513 38.528H121.697V39.856H108.513V38.528ZM110.001 40.992H120.209V44.624H111.697V46.416H110.033V43.392H118.545V42.288H110.001V40.992ZM110.033 45.856H120.705V47.136H110.033V45.856ZM123.664 42.56H124.656C125.541 42.56 126.395 42.5387 127.216 42.496C128.048 42.4533 128.939 42.352 129.888 42.192L130.016 43.552C129.045 43.7227 128.133 43.8293 127.28 43.872C126.427 43.9147 125.552 43.936 124.656 43.936H123.664V42.56ZM123.632 34.208H129.136V39.584H125.28V43.056H123.664V38.24H127.504V35.568H123.632V34.208ZM134.08 32.688H135.68V47.312H134.08V32.688ZM131.84 38.352H134.496V39.712H131.84V38.352ZM130.784 32.992H132.352V46.592H130.784V32.992ZM141.567 33.376H142.959V34.784C142.959 35.712 142.793 36.5867 142.463 37.408C142.143 38.2187 141.673 38.9333 141.055 39.552C140.436 40.16 139.689 40.6187 138.815 40.928L137.983 39.584C138.559 39.392 139.065 39.1307 139.503 38.8C139.951 38.4693 140.329 38.0907 140.639 37.664C140.948 37.2267 141.177 36.768 141.327 36.288C141.487 35.7973 141.567 35.296 141.567 34.784V33.376ZM141.903 33.376H143.263V34.784C143.263 35.2853 143.343 35.7707 143.503 36.24C143.663 36.6987 143.892 37.1307 144.191 37.536C144.489 37.9307 144.857 38.288 145.295 38.608C145.743 38.9173 146.249 39.1627 146.815 39.344L145.983 40.656C145.119 40.3573 144.383 39.92 143.775 39.344C143.167 38.768 142.703 38.0907 142.383 37.312C142.063 36.5227 141.903 35.68 141.903 34.784V33.376ZM140.143 42.16H149.983V47.328H148.303V43.504H140.143V42.16ZM148.303 32.704H149.983V41.456H148.303V32.704ZM167.832 32.688H169.432V47.312H167.832V32.688ZM165.784 38.464H168.424V39.84H165.784V38.464ZM164.664 32.976H166.248V46.624H164.664V32.976ZM159.72 34.96H161.016V36.48C161.016 37.3653 160.952 38.2133 160.824 39.024C160.696 39.824 160.499 40.5707 160.232 41.264C159.965 41.9467 159.624 42.5547 159.208 43.088C158.792 43.6213 158.291 44.064 157.704 44.416L156.68 43.12C157.395 42.7147 157.971 42.1813 158.408 41.52C158.856 40.848 159.187 40.08 159.4 39.216C159.613 38.352 159.72 37.44 159.72 36.48V34.96ZM160.056 34.96H161.336V36.48C161.336 37.3547 161.443 38.192 161.656 38.992C161.869 39.7813 162.2 40.4907 162.648 41.12C163.096 41.7387 163.672 42.2347 164.376 42.608L163.416 43.888C162.637 43.4613 161.997 42.88 161.496 42.144C160.995 41.3973 160.627 40.544 160.392 39.584C160.168 38.6133 160.056 37.5787 160.056 36.48V34.96ZM157.08 34.304H163.8V35.68H157.08V34.304ZM174.471 33.6H175.799V35.44C175.799 36.208 175.671 36.9653 175.415 37.712C175.159 38.448 174.78 39.1147 174.279 39.712C173.788 40.3093 173.164 40.7733 172.407 41.104L171.511 39.808C172.172 39.5093 172.721 39.1253 173.159 38.656C173.596 38.176 173.921 37.6587 174.135 37.104C174.359 36.5387 174.471 35.984 174.471 35.44V33.6ZM174.775 33.6H176.087V35.44C176.087 35.9627 176.193 36.48 176.407 36.992C176.62 37.504 176.94 37.968 177.367 38.384C177.793 38.8 178.316 39.136 178.935 39.392L178.055 40.656C177.329 40.368 176.721 39.9573 176.231 39.424C175.74 38.8907 175.372 38.2827 175.127 37.6C174.892 36.9067 174.775 36.1867 174.775 35.44V33.6ZM182.391 32.704H183.991V41.696H182.391V32.704ZM180.311 36.464H182.871V37.824H180.311V36.464ZM179.271 32.976H180.855V41.232H179.271V32.976ZM179.111 41.952C180.124 41.952 180.999 42.0587 181.735 42.272C182.481 42.4853 183.052 42.7947 183.447 43.2C183.852 43.5947 184.055 44.0747 184.055 44.64C184.055 45.1947 183.852 45.6693 183.447 46.064C183.052 46.4693 182.481 46.7733 181.735 46.976C180.999 47.1893 180.124 47.296 179.111 47.296C178.108 47.296 177.233 47.1893 176.487 46.976C175.74 46.7733 175.164 46.4693 174.759 46.064C174.364 45.6693 174.167 45.1947 174.167 44.64C174.167 44.0747 174.364 43.5947 174.759 43.2C175.164 42.7947 175.74 42.4853 176.487 42.272C177.233 42.0587 178.108 41.952 179.111 41.952ZM179.111 43.232C178.087 43.232 177.281 43.3547 176.695 43.6C176.119 43.8347 175.831 44.1813 175.831 44.64C175.831 45.0773 176.119 45.4187 176.695 45.664C177.281 45.9093 178.087 46.032 179.111 46.032C179.793 46.032 180.38 45.9787 180.871 45.872C181.361 45.7547 181.735 45.5947 181.991 45.392C182.247 45.1893 182.375 44.9387 182.375 44.64C182.375 44.1813 182.087 43.8347 181.511 43.6C180.945 43.3547 180.145 43.232 179.111 43.232Z" fill="#002F65"/>
</g>
</g>
</g>
</g>
</g>
</g>
</g>
<defs>
<filter id="filter0_d_0_1" x="0" y="0" width="215.98" height="88.8" filterUnits="userSpaceOnUse" color-interpolation-filters="sRGB">
<feFlood flood-opacity="0" result="BackgroundImageFix"/>
<feColorMatrix in="SourceAlpha" type="matrix" values="0 0 0 0 0 0 0 0 0 0 0 0 0 0 0 0 0 0 127 0" result="hardAlpha"/>
<feOffset dy="4"/>
<feGaussianBlur stdDeviation="7"/>
<feComposite in2="hardAlpha" operator="out"/>
<feColorMatrix type="matrix" values="0 0 0 0 0.482353 0 0 0 0 0.654902 0 0 0 0 0.960784 0 0 0 0.39 0"/>
<feBlend mode="normal" in2="BackgroundImageFix" result="effect1_dropShadow_0_1"/>
<feBlend mode="normal" in="SourceGraphic" in2="effect1_dropShadow_0_1" result="shape"/>
</filter>
</defs>
</svg>
