<svg width="216" height="89" viewBox="0 0 216 89" fill="none" xmlns="http://www.w3.org/2000/svg">
<rect width="216" height="89" fill="#CEE0FF"/>
<g id="&#234;&#180;&#128;&#235;&#166;&#172;&#236;&#158;&#144;">
<path d="M-1253.02 -306.743C-1253.02 -309.536 -1250.76 -311.8 -1247.96 -311.8H2767.92C2770.72 -311.8 2772.98 -309.536 2772.98 -306.743V899.143C2772.98 901.936 2770.72 904.2 2767.92 904.2H-1247.96C-1250.76 904.2 -1253.02 901.936 -1253.02 899.143V-306.743Z" fill="white"/>
<path d="M-1247.96 -311.8V-309.271H2767.92V-311.8V-314.329H-1247.96V-311.8ZM2772.98 -306.743H2770.45V899.143H2772.98H2775.51V-306.743H2772.98ZM2767.92 904.2V901.671H-1247.96V904.2V906.729H2767.92V904.2ZM-1253.02 899.143H-1250.49V-306.743H-1253.02H-1255.55V899.143H-1253.02ZM-1247.96 904.2V901.671C-1249.36 901.671 -1250.49 900.539 -1250.49 899.143H-1253.02H-1255.55C-1255.55 903.332 -1252.15 906.729 -1247.96 906.729V904.2ZM2772.98 899.143H2770.45C2770.45 900.539 2769.32 901.671 2767.92 901.671V904.2V906.729C2772.11 906.729 2775.51 903.332 2775.51 899.143H2772.98ZM2767.92 -311.8V-309.271C2769.32 -309.271 2770.45 -308.139 2770.45 -306.743H2772.98H2775.51C2775.51 -310.932 2772.11 -314.329 2767.92 -314.329V-311.8ZM-1247.96 -311.8V-314.329C-1252.15 -314.329 -1255.55 -310.932 -1255.55 -306.743H-1253.02H-1250.49C-1250.49 -308.139 -1249.36 -309.271 -1247.96 -309.271V-311.8Z" fill="black" fill-opacity="0.1"/>
<g id="Html &#226;&#134;&#146; Body">
<rect width="1280" height="1024" transform="translate(-1029.02 -215.8)" fill="white"/>
<rect width="1280" height="1024" transform="translate(-1029.02 -215.8)" fill="#0D0F14"/>
<g id="Main Content Area">
<g id="Section - Right: Control &#38; Notification Panel (25%)">
<g id="Top: Action Buttons">
<rect x="-11" y="-127.8" width="237.98" height="223.6" rx="12" fill="#1E2A44"/>
<rect x="-10.5" y="-127.3" width="236.98" height="222.6" rx="11.5" stroke="#7BA7F5" stroke-opacity="0.1"/>
<g id="Button" filter="url(#filter0_d_0_1)">
<rect x="14" y="10" width="187.98" height="60.8" rx="8" fill="#FFB4AB" shape-rendering="crispEdges"/>
<g id="Container">
<path id="Icon" d="M41.98 41.39V39.39H45.98V41.39H41.98ZM43.18 48.39L39.98 45.99L41.18 44.39L44.38 46.79L43.18 48.39ZM41.18 36.39L39.98 34.79L43.18 32.39L44.38 33.99L41.18 36.39ZM28.98 47.39V43.39H27.98C27.43 43.39 26.9591 43.1942 26.5675 42.8025C26.1758 42.4108 25.98 41.94 25.98 41.39V39.39C25.98 38.84 26.1758 38.3692 26.5675 37.9775C26.9591 37.5858 27.43 37.39 27.98 37.39H31.98L36.98 34.39V46.39L31.98 43.39H30.98V47.39H28.98ZM34.98 42.84V37.94L32.53 39.39H27.98V41.39H32.53L34.98 42.84ZM37.98 43.74V37.04C38.43 37.44 38.7925 37.9275 39.0675 38.5025C39.3425 39.0775 39.48 39.7067 39.48 40.39C39.48 41.0733 39.3425 41.7025 39.0675 42.2775C38.7925 42.8525 38.43 43.34 37.98 43.74Z" fill="#690005"/>
</g>
<path id="&#235;&#134;&#128;&#236;&#157;&#180;&#235;&#176;&#169; &#236;&#130;&#172;&#236;&#157;&#180;&#235;&#160;&#140; &#236;&#134;&#161;&#236;&#182;&#156;" d="M61.8186 36.072H71.8186V37.432H61.8186V36.072ZM60.1066 38.808H73.3546V40.152H60.1066V38.808ZM61.8186 33.08H63.4666V36.792H61.8186V33.08ZM61.6746 41.192H71.7226V44.776H63.3866V46.44H61.7066V43.576H70.0426V42.472H61.6746V41.192ZM61.7066 46.056H72.1866V47.336H61.7066V46.056ZM65.8986 36.888H67.5626V39.576H65.8986V36.888ZM85.1774 32.888H86.8574V47.544H85.1774V32.888ZM79.0814 33.96C79.8067 33.96 80.452 34.1733 81.0174 34.6C81.5934 35.0267 82.0414 35.624 82.3614 36.392C82.6814 37.16 82.8414 38.0667 82.8414 39.112C82.8414 40.168 82.6814 41.0853 82.3614 41.864C82.0414 42.632 81.5934 43.2293 81.0174 43.656C80.452 44.072 79.8067 44.28 79.0814 44.28C78.356 44.28 77.7054 44.072 77.1294 43.656C76.564 43.2293 76.116 42.632 75.7854 41.864C75.4654 41.0853 75.3054 40.168 75.3054 39.112C75.3054 38.0667 75.4654 37.16 75.7854 36.392C76.116 35.624 76.564 35.0267 77.1294 34.6C77.7054 34.1733 78.356 33.96 79.0814 33.96ZM79.0814 35.48C78.6547 35.48 78.276 35.624 77.9454 35.912C77.6254 36.2 77.3747 36.616 77.1934 37.16C77.012 37.704 76.9214 38.3547 76.9214 39.112C76.9214 39.88 77.012 40.536 77.1934 41.08C77.3747 41.624 77.6254 42.0453 77.9454 42.344C78.276 42.632 78.6547 42.776 79.0814 42.776C79.508 42.776 79.8814 42.632 80.2014 42.344C80.5214 42.0453 80.772 41.624 80.9534 41.08C81.1347 40.536 81.2254 39.88 81.2254 39.112C81.2254 38.3547 81.1347 37.704 80.9534 37.16C80.772 36.616 80.5214 36.2 80.2014 35.912C79.8814 35.624 79.508 35.48 79.0814 35.48ZM96.2481 41.96C97.2508 41.96 98.1148 42.072 98.8401 42.296C99.5654 42.52 100.125 42.84 100.52 43.256C100.915 43.6613 101.112 44.1573 101.112 44.744C101.112 45.32 100.915 45.816 100.52 46.232C100.125 46.648 99.5654 46.9627 98.8401 47.176C98.1148 47.4 97.2508 47.512 96.2481 47.512C95.2454 47.512 94.3761 47.4 93.6401 47.176C92.9148 46.9627 92.3548 46.648 91.9601 46.232C91.5761 45.816 91.3841 45.32 91.3841 44.744C91.3841 44.1573 91.5761 43.6613 91.9601 43.256C92.3548 42.84 92.9148 42.52 93.6401 42.296C94.3761 42.072 95.2454 41.96 96.2481 41.96ZM96.2481 43.288C95.5761 43.288 95.0001 43.3467 94.5201 43.464C94.0401 43.5707 93.6721 43.7307 93.4161 43.944C93.1601 44.1573 93.0321 44.4187 93.0321 44.728C93.0321 45.0587 93.1601 45.3307 93.4161 45.544C93.6721 45.7573 94.0401 45.9227 94.5201 46.04C95.0001 46.1467 95.5761 46.2 96.2481 46.2C96.9308 46.2 97.5068 46.1467 97.9761 46.04C98.4561 45.9227 98.8241 45.7573 99.0801 45.544C99.3361 45.3307 99.4641 45.0587 99.4641 44.728C99.4641 44.4187 99.3361 44.1573 99.0801 43.944C98.8241 43.7307 98.4561 43.5707 97.9761 43.464C97.5068 43.3467 96.9308 43.288 96.2481 43.288ZM99.2881 32.904H100.952V41.608H99.2881V32.904ZM100.504 36.456H103.016V37.848H100.504V36.456ZM90.0561 33.816H91.7201V35.848H95.2881V33.816H96.9521V40.616H90.0561V33.816ZM91.7201 37.16V39.288H95.2881V37.16H91.7201ZM111.953 34.104H113.313V36.504C113.313 37.3467 113.217 38.1787 113.025 39C112.844 39.8107 112.577 40.568 112.225 41.272C111.884 41.976 111.463 42.6053 110.961 43.16C110.46 43.704 109.895 44.136 109.265 44.456L108.257 43.096C108.823 42.8187 109.335 42.4507 109.793 41.992C110.252 41.5227 110.641 40.9947 110.961 40.408C111.281 39.8107 111.527 39.1813 111.697 38.52C111.868 37.848 111.953 37.176 111.953 36.504V34.104ZM112.257 34.104H113.617V36.504C113.617 37.1547 113.697 37.8 113.857 38.44C114.017 39.0693 114.252 39.672 114.561 40.248C114.881 40.8133 115.26 41.32 115.697 41.768C116.135 42.216 116.625 42.5733 117.169 42.84L116.145 44.184C115.537 43.864 114.993 43.4427 114.513 42.92C114.044 42.3867 113.639 41.7787 113.297 41.096C112.967 40.4133 112.711 39.6827 112.529 38.904C112.348 38.1253 112.257 37.3253 112.257 36.504V34.104ZM118.145 32.904H119.825V47.528H118.145V32.904ZM119.457 38.68H122.097V40.088H119.457V38.68ZM133.568 32.888H135.248V47.544H133.568V32.888ZM127.472 33.96C128.197 33.96 128.843 34.1733 129.408 34.6C129.984 35.0267 130.432 35.624 130.752 36.392C131.072 37.16 131.232 38.0667 131.232 39.112C131.232 40.168 131.072 41.0853 130.752 41.864C130.432 42.632 129.984 43.2293 129.408 43.656C128.843 44.072 128.197 44.28 127.472 44.28C126.747 44.28 126.096 44.072 125.52 43.656C124.955 43.2293 124.507 42.632 124.176 41.864C123.856 41.0853 123.696 40.168 123.696 39.112C123.696 38.0667 123.856 37.16 124.176 36.392C124.507 35.624 124.955 35.0267 125.52 34.6C126.096 34.1733 126.747 33.96 127.472 33.96ZM127.472 35.48C127.045 35.48 126.667 35.624 126.336 35.912C126.016 36.2 125.765 36.616 125.584 37.16C125.403 37.704 125.312 38.3547 125.312 39.112C125.312 39.88 125.403 40.536 125.584 41.08C125.765 41.624 126.016 42.0453 126.336 42.344C126.667 42.632 127.045 42.776 127.472 42.776C127.899 42.776 128.272 42.632 128.592 42.344C128.912 42.0453 129.163 41.624 129.344 41.08C129.525 40.536 129.616 39.88 129.616 39.112C129.616 38.3547 129.525 37.704 129.344 37.16C129.163 36.616 128.912 36.2 128.592 35.912C128.272 35.624 127.899 35.48 127.472 35.48ZM138.559 40.408H139.535C140.228 40.408 140.857 40.3973 141.423 40.376C141.988 40.3547 142.537 40.3173 143.071 40.264C143.604 40.2107 144.153 40.136 144.719 40.04L144.895 41.352C144.308 41.4587 143.737 41.544 143.183 41.608C142.639 41.6613 142.068 41.6987 141.471 41.72C140.884 41.7413 140.239 41.752 139.535 41.752H138.559V40.408ZM138.543 34.04H143.695V38.456H140.191V41.032H138.559V37.208H142.079V35.368H138.543V34.04ZM144.239 36.76H146.959V38.136H144.239V36.76ZM148.719 32.904H150.319V43.896H148.719V32.904ZM145.823 33.16H147.391V43.544H145.823V33.16ZM140.639 45.864H150.719V47.224H140.639V45.864ZM140.639 42.824H142.319V46.808H140.639V42.824ZM162.648 38.04H164.312V40.728H162.648V38.04ZM162.616 33.144H164.072V33.704C164.072 34.2267 163.976 34.728 163.784 35.208C163.592 35.6773 163.32 36.1147 162.968 36.52C162.616 36.9147 162.2 37.2667 161.72 37.576C161.24 37.8853 160.707 38.152 160.12 38.376C159.533 38.5893 158.909 38.7493 158.248 38.856L157.608 37.528C158.195 37.4533 158.744 37.3307 159.256 37.16C159.768 36.9893 160.227 36.7813 160.632 36.536C161.048 36.2907 161.405 36.0187 161.704 35.72C162.003 35.4213 162.227 35.1013 162.376 34.76C162.536 34.408 162.616 34.056 162.616 33.704V33.144ZM162.888 33.144H164.328V33.704C164.328 34.0667 164.408 34.4187 164.568 34.76C164.728 35.1013 164.952 35.4267 165.24 35.736C165.539 36.0347 165.896 36.3067 166.312 36.552C166.728 36.7973 167.187 37.0053 167.688 37.176C168.2 37.336 168.749 37.4533 169.336 37.528L168.712 38.856C168.051 38.7493 167.427 38.5893 166.84 38.376C166.253 38.152 165.715 37.8853 165.224 37.576C164.744 37.2667 164.328 36.9147 163.976 36.52C163.635 36.1253 163.368 35.6933 163.176 35.224C162.984 34.744 162.888 34.2373 162.888 33.704V33.144ZM156.888 40.024H170.104V41.368H156.888V40.024ZM163.464 42.376C165.043 42.376 166.275 42.6 167.16 43.048C168.056 43.496 168.504 44.1307 168.504 44.952C168.504 45.7733 168.056 46.4027 167.16 46.84C166.275 47.2773 165.043 47.496 163.464 47.496C161.896 47.496 160.664 47.2773 159.768 46.84C158.883 46.4027 158.44 45.7733 158.44 44.952C158.44 44.1307 158.883 43.496 159.768 43.048C160.664 42.6 161.896 42.376 163.464 42.376ZM163.464 43.656C162.387 43.656 161.56 43.768 160.984 43.992C160.408 44.2053 160.12 44.5253 160.12 44.952C160.12 45.3787 160.408 45.6987 160.984 45.912C161.56 46.1253 162.387 46.232 163.464 46.232C164.541 46.232 165.368 46.1253 165.944 45.912C166.52 45.6987 166.808 45.3787 166.808 44.952C166.808 44.5253 166.52 44.2053 165.944 43.992C165.368 43.768 164.541 43.656 163.464 43.656ZM177.367 40.248H179.047V42.408H177.367V40.248ZM171.623 39.272H184.807V40.52H171.623V39.272ZM177.367 32.84H179.031V34.6H177.367V32.84ZM177.287 34.728H178.759V34.984C178.759 35.5387 178.609 36.0347 178.311 36.472C178.023 36.8987 177.612 37.272 177.079 37.592C176.545 37.912 175.905 38.168 175.159 38.36C174.423 38.5413 173.607 38.664 172.711 38.728L172.231 37.48C173.031 37.4373 173.74 37.3467 174.359 37.208C174.977 37.0693 175.505 36.8933 175.943 36.68C176.38 36.456 176.711 36.2 176.935 35.912C177.169 35.624 177.287 35.3147 177.287 34.984V34.728ZM177.655 34.728H179.127V34.984C179.127 35.3147 179.239 35.624 179.463 35.912C179.697 36.2 180.028 36.456 180.455 36.68C180.892 36.8933 181.42 37.0693 182.039 37.208C182.668 37.3467 183.383 37.4373 184.183 37.48L183.703 38.728C182.796 38.664 181.975 38.5413 181.239 38.36C180.503 38.168 179.868 37.912 179.335 37.592C178.801 37.272 178.385 36.8987 178.087 36.472C177.799 36.0347 177.655 35.5387 177.655 34.984V34.728ZM172.919 34.104H183.511V35.352H172.919V34.104ZM173.159 41.656H183.159V45.032H174.839V46.632H173.191V43.88H181.511V42.872H173.159V41.656ZM173.191 46.136H183.575V47.384H173.191V46.136Z" fill="#690005"/>
</g>
</g>
</g>
</g>
</g>
</g>
<defs>
<filter id="filter0_d_0_1" x="0" y="0" width="215.98" height="88.8" filterUnits="userSpaceOnUse" color-interpolation-filters="sRGB">
<feFlood flood-opacity="0" result="BackgroundImageFix"/>
<feColorMatrix in="SourceAlpha" type="matrix" values="0 0 0 0 0 0 0 0 0 0 0 0 0 0 0 0 0 0 127 0" result="hardAlpha"/>
<feOffset dy="4"/>
<feGaussianBlur stdDeviation="7"/>
<feComposite in2="hardAlpha" operator="out"/>
<feColorMatrix type="matrix" values="0 0 0 0 1 0 0 0 0 0.705882 0 0 0 0 0.670588 0 0 0 0.39 0"/>
<feBlend mode="normal" in2="BackgroundImageFix" result="effect1_dropShadow_0_1"/>
<feBlend mode="normal" in="SourceGraphic" in2="effect1_dropShadow_0_1" result="shape"/>
</filter>
</defs>
</svg>
