<svg width="40" height="40" viewBox="0 0 40 40" fill="none" xmlns="http://www.w3.org/2000/svg">
<rect width="40" height="40" fill="#CEE0FF"/>
<g id="&#235;&#179;&#180;&#237;&#152;&#184;&#236;&#158;&#144;">
<path d="M-1202.33 -343.743C-1202.33 -346.536 -1200.07 -348.8 -1197.28 -348.8H2818.61C2821.4 -348.8 2823.67 -346.536 2823.67 -343.743V862.143C2823.67 864.936 2821.4 867.2 2818.61 867.2H-1197.28C-1200.07 867.2 -1202.33 864.936 -1202.33 862.143V-343.743Z" fill="white"/>
<path d="M-1197.28 -348.8V-346.271H2818.61V-348.8V-351.329H-1197.28V-348.8ZM2823.67 -343.743H2821.14V862.143H2823.67H2826.2V-343.743H2823.67ZM2818.61 867.2V864.671H-1197.28V867.2V869.729H2818.61V867.2ZM-1202.33 862.143H-1199.8V-343.743H-1202.33H-1204.86V862.143H-1202.33ZM-1197.28 867.2V864.671C-1198.67 864.671 -1199.8 863.539 -1199.8 862.143H-1202.33H-1204.86C-1204.86 866.332 -1201.47 869.729 -1197.28 869.729V867.2ZM2823.67 862.143H2821.14C2821.14 863.539 2820.01 864.671 2818.61 864.671V867.2V869.729C2822.8 869.729 2826.2 866.332 2826.2 862.143H2823.67ZM2818.61 -348.8V-346.271C2820.01 -346.271 2821.14 -345.139 2821.14 -343.743H2823.67H2826.2C2826.2 -347.932 2822.8 -351.329 2818.61 -351.329V-348.8ZM-1197.28 -348.8V-351.329C-1201.47 -351.329 -1204.86 -347.932 -1204.86 -343.743H-1202.33H-1199.8C-1199.8 -345.139 -1198.67 -346.271 -1197.28 -346.271V-348.8Z" fill="black" fill-opacity="0.1"/>
<g id="Html &#226;&#134;&#146; Body">
<rect width="1280" height="1024" transform="translate(-978.333 -252.8)" fill="white"/>
<rect width="1280" height="1024" transform="translate(-978.333 -252.8)" fill="#111318"/>
<g id="Main Dashboard Area">
<rect width="1024" height="1024" transform="translate(-722.333 -252.8)" fill="#111318"/>
<g id="Dashboard Grid Layout">
<g id="Right Column: Timeline &#38; CTA (4 columns)">
<g id="Today&#39;s Activity Timeline">
<rect x="-37" y="-77.8" width="298.667" height="667" rx="16" fill="#1E1F25"/>
<rect x="-36.5" y="-77.3" width="297.667" height="666" rx="15.5" stroke="#424751" stroke-opacity="0.3"/>
<g id="Timeline List">
<g id="Item 1: Meal">
<g id="Background+Border">
<rect width="40" height="40" rx="20" fill="#33353A"/>
<rect x="0.5" y="0.5" width="39" height="39" rx="19.5" stroke="#424751" stroke-opacity="0.5"/>
<g id="Container">
<path id="Icon" d="M15.5 30V20.85C14.65 20.6167 13.9375 20.15 13.3625 19.45C12.7875 18.75 12.5 17.9333 12.5 17V10H14.5V17H15.5V10H17.5V17H18.5V10H20.5V17C20.5 17.9333 20.2125 18.75 19.6375 19.45C19.0625 20.15 18.35 20.6167 17.5 20.85V30H15.5ZM25.5 30V22H22.5V15C22.5 13.6167 22.9875 12.4375 23.9625 11.4625C24.9375 10.4875 26.1167 10 27.5 10V30H25.5Z" fill="#B3C9E2"/>
</g>
</g>
</g>
</g>
</g>
</g>
</g>
</g>
</g>
</g>
</svg>
