<svg width="48" height="48" viewBox="0 0 48 48" fill="none" xmlns="http://www.w3.org/2000/svg">
<rect width="48" height="48" fill="#CEE0FF"/>
<g id="&#235;&#179;&#180;&#237;&#152;&#184;&#236;&#158;&#144;">
<path d="M-553 -673.318C-553 -676.111 -550.736 -678.375 -547.943 -678.375H3467.94C3470.74 -678.375 3473 -676.111 3473 -673.318V532.568C3473 535.361 3470.74 537.625 3467.94 537.625H-547.943C-550.736 537.625 -553 535.361 -553 532.568V-673.318Z" fill="white"/>
<path d="M-547.943 -678.375V-675.846H3467.94V-678.375V-680.904H-547.943V-678.375ZM3473 -673.318H3470.47V532.568H3473H3475.53V-673.318H3473ZM3467.94 537.625V535.096H-547.943V537.625V540.154H3467.94V537.625ZM-553 532.568H-550.471V-673.318H-553H-555.529V532.568H-553ZM-547.943 537.625V535.096C-549.339 535.096 -550.471 533.964 -550.471 532.568H-553H-555.529C-555.529 536.757 -552.132 540.154 -547.943 540.154V537.625ZM3473 532.568H3470.47C3470.47 533.964 3469.34 535.096 3467.94 535.096V537.625V540.154C3472.13 540.154 3475.53 536.757 3475.53 532.568H3473ZM3467.94 -678.375V-675.846C3469.34 -675.846 3470.47 -674.714 3470.47 -673.318H3473H3475.53C3475.53 -677.507 3472.13 -680.904 3467.94 -680.904V-678.375ZM-547.943 -678.375V-680.904C-552.132 -680.904 -555.529 -677.507 -555.529 -673.318H-553H-550.471C-550.471 -674.714 -549.339 -675.846 -547.943 -675.846V-678.375Z" fill="black" fill-opacity="0.1"/>
<g id="Html &#226;&#134;&#146; Body">
<rect width="1280" height="1024" transform="translate(-329 -582.375)" fill="white"/>
<rect width="1280" height="1024" transform="translate(-329 -582.375)" fill="#111318"/>
<g id="Main Dashboard Area">
<rect width="1024" height="1024" transform="translate(-73 -582.375)" fill="#111318"/>
<g id="Dashboard Grid Layout">
<g id="Left Column: Media &#38; Summary (8 columns)">
<g id="AI Care Summary Card (Glassmorphism inspired)">
<rect x="-33" y="-33" width="621.333" height="295.19" rx="16" fill="#282A2F"/>
<rect x="-32.5" y="-32.5" width="620.333" height="294.19" rx="15.5" stroke="#424751" stroke-opacity="0.2"/>
<g id="Container">
<g id="Background">
<rect width="48" height="48" rx="12" fill="#284A79"/>
<g id="Container_2">
<path id="Icon" d="M14.6667 28.0834C13.6944 28.0834 12.868 27.7431 12.1875 27.0625C11.5069 26.382 11.1667 25.5556 11.1667 24.5834C11.1667 23.6111 11.5069 22.7847 12.1875 22.1042C12.868 21.4236 13.6944 21.0834 14.6667 21.0834V18.75C14.6667 18.1084 14.8951 17.559 15.3521 17.1021C15.809 16.6452 16.3583 16.4167 17 16.4167H20.5C20.5 15.4445 20.8403 14.6181 21.5208 13.9375C22.2014 13.257 23.0278 12.9167 24 12.9167C24.9722 12.9167 25.7986 13.257 26.4792 13.9375C27.1597 14.6181 27.5 15.4445 27.5 16.4167H31C31.6417 16.4167 32.191 16.6452 32.6479 17.1021C33.1049 17.559 33.3333 18.1084 33.3333 18.75V21.0834C34.3055 21.0834 35.1319 21.4236 35.8125 22.1042C36.493 22.7847 36.8333 23.6111 36.8333 24.5834C36.8333 25.5556 36.493 26.382 35.8125 27.0625C35.1319 27.7431 34.3055 28.0834 33.3333 28.0834V32.75C33.3333 33.3917 33.1049 33.941 32.6479 34.3979C32.191 34.8549 31.6417 35.0834 31 35.0834H17C16.3583 35.0834 15.809 34.8549 15.3521 34.3979C14.8951 33.941 14.6667 33.3917 14.6667 32.75V28.0834ZM20.5 25.75C20.9861 25.75 21.3993 25.5799 21.7396 25.2396C22.0799 24.8993 22.25 24.4861 22.25 24C22.25 23.5139 22.0799 23.1007 21.7396 22.7604C21.3993 22.4202 20.9861 22.25 20.5 22.25C20.0139 22.25 19.6007 22.4202 19.2604 22.7604C18.9201 23.1007 18.75 23.5139 18.75 24C18.75 24.4861 18.9201 24.8993 19.2604 25.2396C19.6007 25.5799 20.0139 25.75 20.5 25.75ZM27.5 25.75C27.9861 25.75 28.3993 25.5799 28.7396 25.2396C29.0799 24.8993 29.25 24.4861 29.25 24C29.25 23.5139 29.0799 23.1007 28.7396 22.7604C28.3993 22.4202 27.9861 22.25 27.5 22.25C27.0139 22.25 26.6007 22.4202 26.2604 22.7604C25.9201 23.1007 25.75 23.5139 25.75 24C25.75 24.4861 25.9201 24.8993 26.2604 25.2396C26.6007 25.5799 27.0139 25.75 27.5 25.75ZM19.3333 30.4167H28.6667V28.0834H19.3333V30.4167Z" fill="#9ABAF0"/>
</g>
</g>
</g>
</g>
</g>
</g>
</g>
</g>
</g>
</svg>
