<svg width="32" height="43" viewBox="0 0 32 43" fill="none" xmlns="http://www.w3.org/2000/svg">
<rect width="32" height="43" fill="#CEE0FF"/>
<g id="&#234;&#180;&#128;&#235;&#166;&#172;&#236;&#158;&#144;">
<path d="M-1343.9 -100.943C-1343.9 -103.736 -1341.64 -106 -1338.84 -106H2677.04C2679.84 -106 2682.1 -103.736 2682.1 -100.943V1104.94C2682.1 1107.74 2679.84 1110 2677.04 1110H-1338.84C-1341.64 1110 -1343.9 1107.74 -1343.9 1104.94V-100.943Z" fill="white"/>
<path d="M-1338.84 -106V-103.471H2677.04V-106V-108.529H-1338.84V-106ZM2682.1 -100.943H2679.57V1104.94H2682.1H2684.63V-100.943H2682.1ZM2677.04 1110V1107.47H-1338.84V1110V1112.53H2677.04V1110ZM-1343.9 1104.94H-1341.37V-100.943H-1343.9H-1346.43V1104.94H-1343.9ZM-1338.84 1110V1107.47C-1340.24 1107.47 -1341.37 1106.34 -1341.37 1104.94H-1343.9H-1346.43C-1346.43 1109.13 -1343.03 1112.53 -1338.84 1112.53V1110ZM2682.1 1104.94H2679.57C2679.57 1106.34 2678.44 1107.47 2677.04 1107.47V1110V1112.53C2681.23 1112.53 2684.63 1109.13 2684.63 1104.94H2682.1ZM2677.04 -106V-103.471C2678.44 -103.471 2679.57 -102.339 2679.57 -100.943H2682.1H2684.63C2684.63 -105.132 2681.23 -108.529 2677.04 -108.529V-106ZM-1338.84 -106V-108.529C-1343.03 -108.529 -1346.43 -105.132 -1346.43 -100.943H-1343.9H-1341.37C-1341.37 -102.339 -1340.24 -103.471 -1338.84 -103.471V-106Z" fill="black" fill-opacity="0.1"/>
<g id="Html &#226;&#134;&#146; Body">
<rect width="1280" height="1024" transform="translate(-1119.9 -10)" fill="white"/>
<rect width="1280" height="1024" transform="translate(-1119.9 -10)" fill="#0D0F14"/>
<foreignObject x="-1143.9" y="-34" width="1328" height="112"><div xmlns="http://www.w3.org/1999/xhtml" style="backdrop-filter:blur(12px);clip-path:url(#bgblur_0_0_1_clip_path);height:100%;width:100%"></div></foreignObject><g id="Header - TopAppBar" data-figma-bg-blur-radius="24">
<mask id="path-3-inside-1_0_1" fill="white">
<path d="M-1119.9 -10H160.1V54H-1119.9V-10Z"/>
</mask>
<path d="M-1119.9 -10H160.1V54H-1119.9V-10Z" fill="#111318"/>
<path d="M160.1 54V53H-1119.9V54V55H160.1V54Z" fill="#424751" fill-opacity="0.3" mask="url(#path-3-inside-1_0_1)"/>
<g id="Container">
<g id="Icons">
<g id="Button">
<g id="Container_2">
<path id="Icon" d="M8 25V23H10V16C10 14.6167 10.4167 13.3875 11.25 12.3125C12.0833 11.2375 13.1667 10.5333 14.5 10.2V9.5C14.5 9.08333 14.6458 8.72917 14.9375 8.4375C15.2292 8.14583 15.5833 8 16 8C16.4167 8 16.7708 8.14583 17.0625 8.4375C17.3542 8.72917 17.5 9.08333 17.5 9.5V10.2C18.8333 10.5333 19.9167 11.2375 20.75 12.3125C21.5833 13.3875 22 14.6167 22 16V23H24V25H8ZM16 28C15.45 28 14.9792 27.8042 14.5875 27.4125C14.1958 27.0208 14 26.55 14 26H18C18 26.55 17.8042 27.0208 17.4125 27.4125C17.0208 27.8042 16.55 28 16 28ZM12 23H20V16C20 14.9 19.6083 13.9583 18.825 13.175C18.0417 12.3917 17.1 12 16 12C14.9 12 13.9583 12.3917 13.175 13.175C12.3917 13.9583 12 14.9 12 16V23Z" fill="#ABC7FF"/>
</g>
</g>
</g>
</g>
</g>
</g>
</g>
<defs>
<clipPath id="bgblur_0_0_1_clip_path" transform="translate(1143.9 34)"><path d="M-1119.9 -10H160.1V54H-1119.9V-10Z"/>
</clipPath></defs>
</svg>
