<svg width="40" height="40" viewBox="0 0 40 40" fill="none" xmlns="http://www.w3.org/2000/svg">
<rect width="40" height="40" fill="#CEE0FF"/>
<g id="&#235;&#179;&#180;&#237;&#152;&#184;&#236;&#158;&#144;">
<path d="M-1202.33 -592.933C-1202.33 -595.726 -1200.07 -597.99 -1197.28 -597.99H2818.61C2821.4 -597.99 2823.67 -595.726 2823.67 -592.933V612.953C2823.67 615.746 2821.4 618.01 2818.61 618.01H-1197.28C-1200.07 618.01 -1202.33 615.746 -1202.33 612.953V-592.933Z" fill="white"/>
<path d="M-1197.28 -597.99V-595.461H2818.61V-597.99V-600.519H-1197.28V-597.99ZM2823.67 -592.933H2821.14V612.953H2823.67H2826.2V-592.933H2823.67ZM2818.61 618.01V615.481H-1197.28V618.01V620.539H2818.61V618.01ZM-1202.33 612.953H-1199.8V-592.933H-1202.33H-1204.86V612.953H-1202.33ZM-1197.28 618.01V615.481C-1198.67 615.481 -1199.8 614.349 -1199.8 612.953H-1202.33H-1204.86C-1204.86 617.142 -1201.47 620.539 -1197.28 620.539V618.01ZM2823.67 612.953H2821.14C2821.14 614.349 2820.01 615.481 2818.61 615.481V618.01V620.539C2822.8 620.539 2826.2 617.142 2826.2 612.953H2823.67ZM2818.61 -597.99V-595.461C2820.01 -595.461 2821.14 -594.329 2821.14 -592.933H2823.67H2826.2C2826.2 -597.122 2822.8 -600.519 2818.61 -600.519V-597.99ZM-1197.28 -597.99V-600.519C-1201.47 -600.519 -1204.86 -597.122 -1204.86 -592.933H-1202.33H-1199.8C-1199.8 -594.329 -1198.67 -595.461 -1197.28 -595.461V-597.99Z" fill="black" fill-opacity="0.1"/>
<g id="Html &#226;&#134;&#146; Body">
<rect width="1280" height="1024" transform="translate(-978.333 -501.99)" fill="white"/>
<rect width="1280" height="1024" transform="translate(-978.333 -501.99)" fill="#111318"/>
<g id="Main Dashboard Area">
<rect width="1024" height="1024" transform="translate(-722.333 -501.99)" fill="#111318"/>
<g id="Dashboard Grid Layout">
<g id="Right Column: Timeline &#38; CTA (4 columns)">
<g id="Today&#39;s Activity Timeline">
<rect x="-37" y="-326.99" width="298.667" height="667" rx="16" fill="#1E1F25"/>
<rect x="-36.5" y="-326.49" width="297.667" height="666" rx="15.5" stroke="#424751" stroke-opacity="0.3"/>
<g id="Timeline List">
<g id="Item 3: Sleep">
<g id="Background+Border">
<rect width="40" height="40" rx="20" fill="#33353A"/>
<rect x="0.5" y="0.5" width="39" height="39" rx="19.5" stroke="#424751" stroke-opacity="0.5"/>
<g id="Container">
<path id="Icon" d="M20 29C17.5 29 15.375 28.125 13.625 26.375C11.875 24.625 11 22.5 11 20C11 17.5 11.875 15.375 13.625 13.625C15.375 11.875 17.5 11 20 11C20.2333 11 20.4625 11.0083 20.6875 11.025C20.9125 11.0417 21.1333 11.0667 21.35 11.1C20.6667 11.5833 20.1208 12.2125 19.7125 12.9875C19.3042 13.7625 19.1 14.6 19.1 15.5C19.1 17 19.625 18.275 20.675 19.325C21.725 20.375 23 20.9 24.5 20.9C25.4167 20.9 26.2583 20.6958 27.025 20.2875C27.7917 19.8792 28.4167 19.3333 28.9 18.65C28.9333 18.8667 28.9583 19.0875 28.975 19.3125C28.9917 19.5375 29 19.7667 29 20C29 22.5 28.125 24.625 26.375 26.375C24.625 28.125 22.5 29 20 29ZM20 27C21.4667 27 22.7833 26.5958 23.95 25.7875C25.1167 24.9792 25.9667 23.925 26.5 22.625C26.1667 22.7083 25.8333 22.775 25.5 22.825C25.1667 22.875 24.8333 22.9 24.5 22.9C22.45 22.9 20.7042 22.1792 19.2625 20.7375C17.8208 19.2958 17.1 17.55 17.1 15.5C17.1 15.1667 17.125 14.8333 17.175 14.5C17.225 14.1667 17.2917 13.8333 17.375 13.5C16.075 14.0333 15.0208 14.8833 14.2125 16.05C13.4042 17.2167 13 18.5333 13 20C13 21.9333 13.6833 23.5833 15.05 24.95C16.4167 26.3167 18.0667 27 20 27Z" fill="#A8C8FF"/>
</g>
</g>
</g>
</g>
</g>
</g>
</g>
</g>
</g>
</g>
</svg>
