<svg width="204" height="26" viewBox="0 0 204 26" fill="none" xmlns="http://www.w3.org/2000/svg">
<rect width="204" height="26" fill="#CEE0FF"/>
<g id="&#234;&#180;&#128;&#235;&#166;&#172;&#236;&#158;&#144;">
<path d="M-1259.02 -443.543C-1259.02 -446.336 -1256.76 -448.6 -1253.96 -448.6H2761.92C2764.72 -448.6 2766.98 -446.336 2766.98 -443.543V762.343C2766.98 765.136 2764.72 767.4 2761.92 767.4H-1253.96C-1256.76 767.4 -1259.02 765.136 -1259.02 762.343V-443.543Z" fill="white"/>
<path d="M-1253.96 -448.6V-446.071H2761.92V-448.6V-451.129H-1253.96V-448.6ZM2766.98 -443.543H2764.45V762.343H2766.98H2769.51V-443.543H2766.98ZM2761.92 767.4V764.871H-1253.96V767.4V769.929H2761.92V767.4ZM-1259.02 762.343H-1256.49V-443.543H-1259.02H-1261.55V762.343H-1259.02ZM-1253.96 767.4V764.871C-1255.36 764.871 -1256.49 763.739 -1256.49 762.343H-1259.02H-1261.55C-1261.55 766.532 -1258.15 769.929 -1253.96 769.929V767.4ZM2766.98 762.343H2764.45C2764.45 763.739 2763.32 764.871 2761.92 764.871V767.4V769.929C2766.11 769.929 2769.51 766.532 2769.51 762.343H2766.98ZM2761.92 -448.6V-446.071C2763.32 -446.071 2764.45 -444.939 2764.45 -443.543H2766.98H2769.51C2769.51 -447.732 2766.11 -451.129 2761.92 -451.129V-448.6ZM-1253.96 -448.6V-451.129C-1258.15 -451.129 -1261.55 -447.732 -1261.55 -443.543H-1259.02H-1256.49C-1256.49 -444.939 -1255.36 -446.071 -1253.96 -446.071V-448.6Z" fill="black" fill-opacity="0.1"/>
<g id="Html &#226;&#134;&#146; Body">
<rect width="1280" height="1024" transform="translate(-1035.02 -352.6)" fill="white"/>
<rect width="1280" height="1024" transform="translate(-1035.02 -352.6)" fill="#0D0F14"/>
<g id="Main Content Area">
<g id="Section - Right: Control &#38; Notification Panel (25%)">
<g id="Bottom: Automated Interventions Log">
<rect x="-17" y="-17" width="237.98" height="664.4" rx="12" fill="#1E2A44"/>
<rect x="-16.5" y="-16.5" width="236.98" height="663.4" rx="11.5" stroke="#7BA7F5" stroke-opacity="0.1"/>
<g id="Overlay+HorizontalBorder">
<mask id="path-5-inside-1_0_1" fill="white">
<path d="M-16 -16H219.98V43H-16V-16Z"/>
</mask>
<path d="M-16 -16H219.98V43H-16V-16Z" fill="#282A2F" fill-opacity="0.5"/>
<path d="M219.98 43V42H-16V43V44H219.98V43Z" fill="#424751" fill-opacity="0.2" mask="url(#path-5-inside-1_0_1)"/>
<g id="Heading 4">
<g id="Container">
<path id="Icon" d="M1.75 15.0416C1.26389 15.0416 0.850694 14.8715 0.510417 14.5312C0.170139 14.191 0 13.7778 0 13.2916C0 12.8055 0.170139 12.3923 0.510417 12.0521C0.850694 11.7118 1.26389 11.5416 1.75 11.5416V10.375C1.75 10.0541 1.86424 9.77949 2.09271 9.55102C2.32118 9.32255 2.59583 9.20831 2.91667 9.20831H4.66667C4.66667 8.7222 4.83681 8.30901 5.17708 7.96873C5.51736 7.62845 5.93056 7.45831 6.41667 7.45831C6.90278 7.45831 7.31597 7.62845 7.65625 7.96873C7.99653 8.30901 8.16667 8.7222 8.16667 9.20831H9.91667C10.2375 9.20831 10.5122 9.32255 10.7406 9.55102C10.9691 9.77949 11.0833 10.0541 11.0833 10.375V11.5416C11.5694 11.5416 11.9826 11.7118 12.3229 12.0521C12.6632 12.3923 12.8333 12.8055 12.8333 13.2916C12.8333 13.7778 12.6632 14.191 12.3229 14.5312C11.9826 14.8715 11.5694 15.0416 11.0833 15.0416V17.375C11.0833 17.6958 10.9691 17.9705 10.7406 18.1989C10.5122 18.4274 10.2375 18.5416 9.91667 18.5416H2.91667C2.59583 18.5416 2.32118 18.4274 2.09271 18.1989C1.86424 17.9705 1.75 17.6958 1.75 17.375V15.0416ZM4.66667 13.875C4.90972 13.875 5.11632 13.7899 5.28646 13.6198C5.4566 13.4496 5.54167 13.243 5.54167 13C5.54167 12.7569 5.4566 12.5503 5.28646 12.3802C5.11632 12.21 4.90972 12.125 4.66667 12.125C4.42361 12.125 4.21701 12.21 4.04688 12.3802C3.87674 12.5503 3.79167 12.7569 3.79167 13C3.79167 13.243 3.87674 13.4496 4.04688 13.6198C4.21701 13.7899 4.42361 13.875 4.66667 13.875ZM8.16667 13.875C8.40972 13.875 8.61632 13.7899 8.78646 13.6198C8.9566 13.4496 9.04167 13.243 9.04167 13C9.04167 12.7569 8.9566 12.5503 8.78646 12.3802C8.61632 12.21 8.40972 12.125 8.16667 12.125C7.92361 12.125 7.71701 12.21 7.54688 12.3802C7.37674 12.5503 7.29167 12.7569 7.29167 13C7.29167 13.243 7.37674 13.4496 7.54688 13.6198C7.71701 13.7899 7.92361 13.875 8.16667 13.875ZM4.08333 16.2083H8.75V15.0416H4.08333V16.2083ZM2.91667 17.375H9.91667V10.375H2.91667V17.375Z" fill="#ABC7FF"/>
</g>
<path id="&#236;&#152;&#164;&#235;&#138;&#152;&#236;&#157;&#152; &#236;&#158;&#144;&#235;&#143;&#153; &#234;&#176;&#156;&#236;&#158;&#133; &#234;&#184;&#176;&#235;&#161;&#157;" d="M27.4953 13.944H28.8073V17.544H27.4953V13.944ZM28.1513 6.712C29.1753 6.712 30.082 6.872 30.8713 7.192C31.6607 7.50133 32.2793 7.93867 32.7273 8.504C33.186 9.06933 33.4153 9.736 33.4153 10.504C33.4153 11.272 33.186 11.944 32.7273 12.52C32.2793 13.0853 31.6607 13.5227 30.8713 13.832C30.082 14.1413 29.1753 14.296 28.1513 14.296C27.138 14.296 26.2313 14.1413 25.4313 13.832C24.642 13.5227 24.0233 13.0853 23.5753 12.52C23.1273 11.944 22.9033 11.272 22.9033 10.504C22.9033 9.736 23.1273 9.06933 23.5753 8.504C24.0233 7.93867 24.642 7.50133 25.4313 7.192C26.2313 6.872 27.138 6.712 28.1513 6.712ZM28.1513 7.784C27.3833 7.784 26.7007 7.896 26.1033 8.12C25.506 8.344 25.0367 8.664 24.6953 9.08C24.354 9.48533 24.1833 9.96 24.1833 10.504C24.1833 11.048 24.354 11.528 24.6953 11.944C25.0367 12.36 25.506 12.68 26.1033 12.904C26.7007 13.128 27.3833 13.24 28.1513 13.24C28.9193 13.24 29.602 13.128 30.1993 12.904C30.7967 12.68 31.266 12.36 31.6073 11.944C31.9593 11.528 32.1353 11.048 32.1353 10.504C32.1353 9.96 31.9593 9.48533 31.6073 9.08C31.266 8.664 30.7967 8.344 30.1993 8.12C29.602 7.896 28.9193 7.784 28.1513 7.784ZM21.6233 17.288H34.7433V18.392H21.6233V17.288ZM38.1021 9.208H47.9101V10.296H38.1021V9.208ZM36.3261 11.704H49.4461V12.792H36.3261V11.704ZM38.1021 5.992H39.3981V9.72H38.1021V5.992ZM37.9581 14.072H47.7821V17.48H39.3181V19.336H37.9901V16.488H46.4701V15.112H37.9581V14.072ZM37.9901 19H48.2781V20.056H37.9901V19ZM55.7488 6.824C56.5062 6.824 57.1728 6.968 57.7488 7.256C58.3355 7.53333 58.7942 7.928 59.1248 8.44C59.4555 8.952 59.6208 9.54933 59.6208 10.232C59.6208 10.904 59.4555 11.5013 59.1248 12.024C58.7942 12.536 58.3355 12.936 57.7488 13.224C57.1728 13.5013 56.5062 13.64 55.7488 13.64C55.0022 13.64 54.3355 13.5013 53.7488 13.224C53.1622 12.936 52.6982 12.536 52.3568 12.024C52.0262 11.5013 51.8608 10.904 51.8608 10.232C51.8608 9.54933 52.0262 8.952 52.3568 8.44C52.6982 7.928 53.1622 7.53333 53.7488 7.256C54.3355 6.968 55.0022 6.824 55.7488 6.824ZM55.7488 7.976C55.2582 7.976 54.8155 8.072 54.4208 8.264C54.0368 8.44533 53.7328 8.70667 53.5088 9.048C53.2848 9.38933 53.1728 9.784 53.1728 10.232C53.1728 10.68 53.2848 11.0747 53.5088 11.416C53.7328 11.7573 54.0368 12.024 54.4208 12.216C54.8155 12.3973 55.2582 12.488 55.7488 12.488C56.2502 12.488 56.6928 12.3973 57.0768 12.216C57.4608 12.024 57.7648 11.7573 57.9888 11.416C58.2128 11.0747 58.3248 10.68 58.3248 10.232C58.3248 9.784 58.2128 9.38933 57.9888 9.048C57.7648 8.70667 57.4608 8.44533 57.0768 8.264C56.6928 8.072 56.2502 7.976 55.7488 7.976ZM61.5248 5.768H62.8528V20.264H61.5248V5.768ZM51.3168 17.096L51.1408 15.976C52.0262 15.976 52.9968 15.9707 54.0528 15.96C55.1088 15.9387 56.1968 15.896 57.3168 15.832C58.4475 15.7573 59.5355 15.64 60.5808 15.48L60.6928 16.456C59.6048 16.6587 58.5008 16.808 57.3808 16.904C56.2715 16.9893 55.1995 17.0427 54.1648 17.064C53.1302 17.0853 52.1808 17.096 51.3168 17.096ZM73.8476 7.848H74.9196V10.184C74.9196 10.9413 74.8129 11.6933 74.5996 12.44C74.3863 13.176 74.0876 13.8747 73.7036 14.536C73.3303 15.1867 72.8983 15.768 72.4076 16.28C71.9169 16.7813 71.3889 17.176 70.8236 17.464L70.0396 16.408C70.5623 16.152 71.0476 15.8053 71.4956 15.368C71.9543 14.92 72.3596 14.4133 72.7116 13.848C73.0636 13.272 73.3409 12.6747 73.5436 12.056C73.7463 11.4267 73.8476 10.8027 73.8476 10.184V7.848ZM74.1036 7.848H75.1596V10.184C75.1596 10.76 75.2503 11.3413 75.4316 11.928C75.6236 12.5147 75.8903 13.0747 76.2316 13.608C76.5729 14.1413 76.9676 14.6213 77.4156 15.048C77.8743 15.464 78.3596 15.8 78.8716 16.056L78.1196 17.112C77.5543 16.824 77.0263 16.44 76.5356 15.96C76.0449 15.4693 75.6183 14.9147 75.2556 14.296C74.8929 13.6773 74.6103 13.016 74.4076 12.312C74.2049 11.608 74.1036 10.8987 74.1036 10.184V7.848ZM70.5516 7.256H78.3596V8.36H70.5516V7.256ZM80.0716 5.768H81.3996V20.248H80.0716V5.768ZM81.0956 11.608H83.7676V12.728H81.0956V11.608ZM84.9983 12.904H98.0863V13.976H84.9983V12.904ZM90.8863 10.584H92.1823V13.352H90.8863V10.584ZM86.6463 10.168H96.5503V11.24H86.6463V10.168ZM86.6463 6.44H96.4543V7.496H87.9583V10.808H86.6463V6.44ZM91.5263 15.016C93.073 15.016 94.2837 15.2453 95.1583 15.704C96.033 16.152 96.4703 16.792 96.4703 17.624C96.4703 18.456 96.033 19.096 95.1583 19.544C94.2837 20.0027 93.073 20.232 91.5263 20.232C89.9797 20.232 88.7637 20.0027 87.8783 19.544C87.0037 19.096 86.5663 18.456 86.5663 17.624C86.5663 16.792 87.0037 16.152 87.8783 15.704C88.7637 15.2453 89.9797 15.016 91.5263 15.016ZM91.5103 16.056C90.7637 16.056 90.1183 16.12 89.5743 16.248C89.041 16.3653 88.6303 16.5413 88.3423 16.776C88.0543 17 87.9103 17.2827 87.9103 17.624C87.9103 17.9547 88.0543 18.2373 88.3423 18.472C88.6303 18.7067 89.041 18.8827 89.5743 19C90.1183 19.128 90.7637 19.192 91.5103 19.192C92.2783 19.192 92.929 19.128 93.4623 19C94.0063 18.8827 94.4223 18.7067 94.7103 18.472C94.9983 18.2373 95.1423 17.9547 95.1423 17.624C95.1423 17.2827 94.9983 17 94.7103 16.776C94.4223 16.5413 94.0063 16.3653 93.4623 16.248C92.929 16.12 92.2783 16.056 91.5103 16.056ZM115.193 5.768H116.473V20.248H115.193V5.768ZM112.857 11.592H115.641V12.68H112.857V11.592ZM109.129 7.64H110.393C110.393 8.568 110.302 9.47467 110.121 10.36C109.94 11.2453 109.641 12.0987 109.225 12.92C108.82 13.7307 108.27 14.4933 107.577 15.208C106.884 15.912 106.02 16.5573 104.985 17.144L104.217 16.2C105.433 15.5173 106.398 14.744 107.113 13.88C107.828 13.016 108.34 12.0827 108.649 11.08C108.969 10.0667 109.129 9 109.129 7.88V7.64ZM104.777 7.64H109.561V8.728H104.777V7.64ZM111.993 6.152H113.241V19.528H111.993V6.152ZM129.464 5.768H130.792V13.544H129.464V5.768ZM121.48 14.264H122.776V16.008H129.48V14.264H130.792V20.056H121.48V14.264ZM122.776 17.064V18.968H129.48V17.064H122.776ZM123.032 6.456C123.768 6.456 124.419 6.6 124.984 6.888C125.549 7.16533 125.992 7.55467 126.312 8.056C126.643 8.55733 126.808 9.13867 126.808 9.8C126.808 10.4507 126.643 11.032 126.312 11.544C125.992 12.0453 125.549 12.4347 124.984 12.712C124.419 12.9893 123.768 13.128 123.032 13.128C122.307 13.128 121.656 12.9893 121.08 12.712C120.515 12.4347 120.067 12.0453 119.736 11.544C119.416 11.032 119.256 10.4507 119.256 9.8C119.256 9.13867 119.416 8.55733 119.736 8.056C120.067 7.55467 120.515 7.16533 121.08 6.888C121.656 6.6 122.307 6.456 123.032 6.456ZM123.032 7.576C122.552 7.576 122.125 7.672 121.752 7.864C121.379 8.04533 121.085 8.30667 120.872 8.648C120.659 8.97867 120.552 9.36267 120.552 9.8C120.552 10.2267 120.659 10.6107 120.872 10.952C121.085 11.2827 121.379 11.544 121.752 11.736C122.125 11.928 122.552 12.024 123.032 12.024C123.512 12.024 123.939 11.928 124.312 11.736C124.685 11.544 124.979 11.2827 125.192 10.952C125.405 10.6107 125.512 10.2267 125.512 9.8C125.512 9.36267 125.405 8.97867 125.192 8.648C124.979 8.30667 124.685 8.04533 124.312 7.864C123.939 7.672 123.512 7.576 123.032 7.576ZM148.699 5.768H150.027V20.248H148.699V5.768ZM144.459 7.336H145.771C145.771 8.38133 145.643 9.38933 145.387 10.36C145.141 11.3307 144.752 12.2533 144.219 13.128C143.685 13.992 142.992 14.7973 142.139 15.544C141.285 16.2907 140.251 16.9573 139.035 17.544L138.331 16.472C139.728 15.8 140.88 15.016 141.787 14.12C142.693 13.224 143.365 12.2267 143.803 11.128C144.24 10.0187 144.459 8.824 144.459 7.544V7.336ZM139.003 7.336H145.019V8.408H139.003V7.336ZM152.857 13.736H165.977V14.824H152.857V13.736ZM154.521 6.136H164.297V9.656H155.865V11.592H154.553V8.664H162.985V7.192H154.521V6.136ZM154.553 11.16H164.601V12.216H154.553V11.16ZM158.761 11.704H160.073V14.264H158.761V11.704ZM154.329 15.928H164.377V20.104H163.049V17H154.329V15.928Z" fill="#E2E2E9"/>
</g>
</g>
</g>
</g>
</g>
</g>
</g>
</svg>
