<svg width="12" height="12" viewBox="0 0 12 12" fill="none" xmlns="http://www.w3.org/2000/svg">
<rect width="12" height="12" fill="#CEE0FF"/>
<g id="&#235;&#179;&#180;&#237;&#152;&#184;&#236;&#158;&#144;">
<path d="M-1333 -197.443C-1333 -200.236 -1330.74 -202.5 -1327.94 -202.5H2687.94C2690.74 -202.5 2693 -200.236 2693 -197.443V1008.44C2693 1011.24 2690.74 1013.5 2687.94 1013.5H-1327.94C-1330.74 1013.5 -1333 1011.24 -1333 1008.44V-197.443Z" fill="white"/>
<path d="M-1327.94 -202.5V-199.971H2687.94V-202.5V-205.029H-1327.94V-202.5ZM2693 -197.443H2690.47V1008.44H2693H2695.53V-197.443H2693ZM2687.94 1013.5V1010.97H-1327.94V1013.5V1016.03H2687.94V1013.5ZM-1333 1008.44H-1330.47V-197.443H-1333H-1335.53V1008.44H-1333ZM-1327.94 1013.5V1010.97C-1329.34 1010.97 -1330.47 1009.84 -1330.47 1008.44H-1333H-1335.53C-1335.53 1012.63 -1332.13 1016.03 -1327.94 1016.03V1013.5ZM2693 1008.44H2690.47C2690.47 1009.84 2689.34 1010.97 2687.94 1010.97V1013.5V1016.03C2692.13 1016.03 2695.53 1012.63 2695.53 1008.44H2693ZM2687.94 -202.5V-199.971C2689.34 -199.971 2690.47 -198.839 2690.47 -197.443H2693H2695.53C2695.53 -201.632 2692.13 -205.029 2687.94 -205.029V-202.5ZM-1327.94 -202.5V-205.029C-1332.13 -205.029 -1335.53 -201.632 -1335.53 -197.443H-1333H-1330.47C-1330.47 -198.839 -1329.34 -199.971 -1327.94 -199.971V-202.5Z" fill="black" fill-opacity="0.1"/>
<g id="Html &#226;&#134;&#146; Body">
<rect width="1280" height="1024" transform="translate(-1109 -106.5)" fill="white"/>
<rect width="1280" height="1024" transform="translate(-1109 -106.5)" fill="#111318"/>
<g id="Main Dashboard Area">
<rect width="1024" height="1024" transform="translate(-853 -106.5)" fill="#111318"/>
<g id="Dashboard Header">
<mask id="path-3-inside-1_0_1" fill="white">
<path d="M-813 -42.5H131V36.5H-813V-42.5Z"/>
</mask>
<path d="M131 36.5V35.5H-813V36.5V37.5H131V36.5Z" fill="#424751" fill-opacity="0.1" mask="url(#path-3-inside-1_0_1)"/>
<g id="Container">
<g id="Button">
<rect x="-16.5" y="-13" width="147" height="38" rx="7.5" stroke="#424751" stroke-opacity="0.5"/>
<g id="Container_2">
<path id="Icon" d="M6 9L2.25 5.25L3.3 4.1625L5.25 6.1125V0H6.75V6.1125L8.7 4.1625L9.75 5.25L6 9ZM1.5 12C1.0875 12 0.734375 11.8531 0.440625 11.5594C0.146875 11.2656 0 10.9125 0 10.5V8.25H1.5V10.5H10.5V8.25H12V10.5C12 10.9125 11.8531 11.2656 11.5594 11.5594C11.2656 11.8531 10.9125 12 10.5 12H1.5Z" fill="#C3C6D2"/>
</g>
</g>
</g>
</g>
</g>
</g>
</g>
</svg>
