<svg width="102" height="27" viewBox="0 0 102 27" fill="none" xmlns="http://www.w3.org/2000/svg">
<rect width="102" height="27" fill="#CEE0FF"/>
<g id="&#234;&#180;&#128;&#235;&#166;&#172;&#236;&#158;&#144;">
<path d="M-594 -1047.28C-594 -1050.07 -591.736 -1052.33 -588.943 -1052.33H3426.94C3429.74 -1052.33 3432 -1050.07 3432 -1047.28V158.61C3432 161.403 3429.74 163.667 3426.94 163.667H-588.943C-591.736 163.667 -594 161.403 -594 158.61V-1047.28Z" fill="white"/>
<path d="M-588.943 -1052.33V-1049.8H3426.94V-1052.33V-1054.86H-588.943V-1052.33ZM3432 -1047.28H3429.47V158.61H3432H3434.53V-1047.28H3432ZM3426.94 163.667V161.138H-588.943V163.667V166.195H3426.94V163.667ZM-594 158.61H-591.471V-1047.28H-594H-596.529V158.61H-594ZM-588.943 163.667V161.138C-590.339 161.138 -591.471 160.006 -591.471 158.61H-594H-596.529C-596.529 162.799 -593.132 166.195 -588.943 166.195V163.667ZM3432 158.61H3429.47C3429.47 160.006 3428.34 161.138 3426.94 161.138V163.667V166.195C3431.13 166.195 3434.53 162.799 3434.53 158.61H3432ZM3426.94 -1052.33V-1049.8C3428.34 -1049.8 3429.47 -1048.67 3429.47 -1047.28H3432H3434.53C3434.53 -1051.47 3431.13 -1054.86 3426.94 -1054.86V-1052.33ZM-588.943 -1052.33V-1054.86C-593.132 -1054.86 -596.529 -1051.47 -596.529 -1047.28H-594H-591.471C-591.471 -1048.67 -590.339 -1049.8 -588.943 -1049.8V-1052.33Z" fill="black" fill-opacity="0.1"/>
<g id="Html &#226;&#134;&#146; Body">
<rect width="1280" height="1024" transform="translate(-370 -956.333)" fill="white"/>
<rect width="1280" height="1024" transform="translate(-370 -956.333)" fill="#0D0F14"/>
<g id="Main Content Area">
<g id="Section - Left: Monitoring View (75%)" filter="url(#filter0_d_0_1)">
<rect x="-90" y="-868.333" width="714.02" height="912" rx="12" fill="#1E2A44"/>
<rect x="-89.5" y="-867.833" width="713.02" height="911" rx="11.5" stroke="#7BA7F5" stroke-opacity="0.1"/>
<g id="Bottom Controls Overlay">
<rect width="712.02" height="58.6667" transform="translate(-89 -16)" fill="url(#paint0_linear_0_1)"/>
<g id="Container">
<g id="Button">
<rect width="101.333" height="26.6667" rx="6" fill="#1E1F25" fill-opacity="0.5"/>
<rect x="0.5" y="0.5" width="100.333" height="25.6667" rx="5.5" stroke="#424751" stroke-opacity="0.3"/>
<g id="Container_2">
<path id="Icon" d="M17.6667 15C17.1111 15 16.6389 14.8056 16.25 14.4167C15.8611 14.0278 15.6667 13.5556 15.6667 13V9C15.6667 8.44444 15.8611 7.97222 16.25 7.58333C16.6389 7.19444 17.1111 7 17.6667 7C18.2222 7 18.6944 7.19444 19.0833 7.58333C19.4722 7.97222 19.6667 8.44444 19.6667 9V13C19.6667 13.5556 19.4722 14.0278 19.0833 14.4167C18.6944 14.8056 18.2222 15 17.6667 15ZM17 19.6667V17.6167C15.8444 17.4611 14.8889 16.9444 14.1333 16.0667C13.3778 15.1889 13 14.1667 13 13H14.3333C14.3333 13.9222 14.6583 14.7083 15.3083 15.3583C15.9583 16.0083 16.7444 16.3333 17.6667 16.3333C18.5889 16.3333 19.375 16.0083 20.025 15.3583C20.675 14.7083 21 13.9222 21 13H22.3333C22.3333 14.1667 21.9556 15.1889 21.2 16.0667C20.4444 16.9444 19.4889 17.4611 18.3333 17.6167V19.6667H17ZM17.6667 13.6667C17.8556 13.6667 18.0139 13.6028 18.1417 13.475C18.2694 13.3472 18.3333 13.1889 18.3333 13V9C18.3333 8.81111 18.2694 8.65278 18.1417 8.525C18.0139 8.39722 17.8556 8.33333 17.6667 8.33333C17.4778 8.33333 17.3194 8.39722 17.1917 8.525C17.0639 8.65278 17 8.81111 17 9V13C17 13.1889 17.0639 13.3472 17.1917 13.475C17.3194 13.6028 17.4778 13.6667 17.6667 13.6667Z" fill="#E2E2E9"/>
</g>
<path id="&#236;&#152;&#164;&#235;&#148;&#148;&#236;&#152;&#164; &#236;&#188;&#156;&#234;&#184;&#176;" d="M31.5522 13.5413H32.5362V16.2413H31.5522V13.5413ZM32.0442 8.11733C32.8122 8.11733 33.4922 8.23733 34.0842 8.47733C34.6762 8.70933 35.1402 9.03733 35.4762 9.46133C35.8202 9.88533 35.9922 10.3853 35.9922 10.9613C35.9922 11.5373 35.8202 12.0413 35.4762 12.4733C35.1402 12.8973 34.6762 13.2253 34.0842 13.4573C33.4922 13.6893 32.8122 13.8053 32.0442 13.8053C31.2842 13.8053 30.6042 13.6893 30.0042 13.4573C29.4122 13.2253 28.9482 12.8973 28.6122 12.4733C28.2762 12.0413 28.1082 11.5373 28.1082 10.9613C28.1082 10.3853 28.2762 9.88533 28.6122 9.46133C28.9482 9.03733 29.4122 8.70933 30.0042 8.47733C30.6042 8.23733 31.2842 8.11733 32.0442 8.11733ZM32.0442 8.92133C31.4682 8.92133 30.9562 9.00533 30.5082 9.17333C30.0602 9.34133 29.7082 9.58133 29.4522 9.89333C29.1962 10.1973 29.0682 10.5533 29.0682 10.9613C29.0682 11.3693 29.1962 11.7293 29.4522 12.0413C29.7082 12.3533 30.0602 12.5933 30.5082 12.7613C30.9562 12.9293 31.4682 13.0133 32.0442 13.0133C32.6202 13.0133 33.1322 12.9293 33.5802 12.7613C34.0282 12.5933 34.3802 12.3533 34.6362 12.0413C34.9002 11.7293 35.0322 11.3693 35.0322 10.9613C35.0322 10.5533 34.9002 10.1973 34.6362 9.89333C34.3802 9.58133 34.0282 9.34133 33.5802 9.17333C33.1322 9.00533 32.6202 8.92133 32.0442 8.92133ZM27.1482 16.0493H36.9882V16.8773H27.1482V16.0493ZM46.6712 7.40933H47.6672V18.2813H46.6712V7.40933ZM39.4832 14.7413H40.3592C41.0792 14.7413 41.7272 14.7333 42.3032 14.7173C42.8792 14.7013 43.4232 14.6653 43.9352 14.6093C44.4552 14.5533 44.9832 14.4773 45.5192 14.3813L45.6152 15.2213C45.0712 15.3253 44.5352 15.4053 44.0072 15.4613C43.4792 15.5093 42.9232 15.5453 42.3392 15.5693C41.7552 15.5853 41.0952 15.5933 40.3592 15.5933H39.4832V14.7413ZM39.4832 8.44133H44.6072V9.26933H40.4792V15.0533H39.4832V8.44133ZM54.8303 13.5413H55.8143V16.2413H54.8303V13.5413ZM55.3223 8.11733C56.0903 8.11733 56.7703 8.23733 57.3623 8.47733C57.9543 8.70933 58.4183 9.03733 58.7543 9.46133C59.0983 9.88533 59.2703 10.3853 59.2703 10.9613C59.2703 11.5373 59.0983 12.0413 58.7543 12.4733C58.4183 12.8973 57.9543 13.2253 57.3623 13.4573C56.7703 13.6893 56.0903 13.8053 55.3223 13.8053C54.5623 13.8053 53.8823 13.6893 53.2823 13.4573C52.6903 13.2253 52.2263 12.8973 51.8903 12.4733C51.5543 12.0413 51.3863 11.5373 51.3863 10.9613C51.3863 10.3853 51.5543 9.88533 51.8903 9.46133C52.2263 9.03733 52.6903 8.70933 53.2823 8.47733C53.8823 8.23733 54.5623 8.11733 55.3223 8.11733ZM55.3223 8.92133C54.7463 8.92133 54.2343 9.00533 53.7863 9.17333C53.3383 9.34133 52.9863 9.58133 52.7303 9.89333C52.4743 10.1973 52.3463 10.5533 52.3463 10.9613C52.3463 11.3693 52.4743 11.7293 52.7303 12.0413C52.9863 12.3533 53.3383 12.5933 53.7863 12.7613C54.2343 12.9293 54.7463 13.0133 55.3223 13.0133C55.8983 13.0133 56.4103 12.9293 56.8583 12.7613C57.3063 12.5933 57.6583 12.3533 57.9143 12.0413C58.1783 11.7293 58.3103 11.3693 58.3103 10.9613C58.3103 10.5533 58.1783 10.1973 57.9143 9.89333C57.6583 9.58133 57.3063 9.34133 56.8583 9.17333C56.4103 9.00533 55.8983 8.92133 55.3223 8.92133ZM50.4263 16.0493H60.2663V16.8773H50.4263V16.0493ZM71.1524 10.4453H74.1284V11.2613H71.1524V10.4453ZM71.0324 13.3493H74.0084V14.1653H71.0324V13.3493ZM70.5524 8.53733H71.5124C71.5124 9.32133 71.4324 10.0853 71.2724 10.8293C71.1204 11.5733 70.8564 12.2853 70.4804 12.9653C70.1124 13.6453 69.6124 14.2813 68.9804 14.8733C68.3564 15.4653 67.5644 16.0013 66.6044 16.4813L66.0524 15.7133C66.8844 15.2893 67.5884 14.8213 68.1644 14.3093C68.7404 13.7973 69.2044 13.2453 69.5564 12.6533C69.9084 12.0613 70.1604 11.4333 70.3124 10.7693C70.4724 10.0973 70.5524 9.38933 70.5524 8.64533V8.53733ZM66.6284 8.53733H71.1524V9.35333H66.6284V8.53733ZM70.4924 11.2253V11.9933L66.2564 12.3893L66.0764 11.5253L70.4924 11.2253ZM73.9724 7.39733H74.9564V18.2573H73.9724V7.39733ZM85.5874 7.40933H86.5834V18.2693H85.5874V7.40933ZM82.4074 8.58533H83.3914C83.3914 9.36933 83.2954 10.1253 83.1034 10.8533C82.9194 11.5813 82.6274 12.2733 82.2274 12.9293C81.8274 13.5773 81.3074 14.1813 80.6674 14.7413C80.0274 15.3013 79.2514 15.8013 78.3394 16.2413L77.8114 15.4373C78.8594 14.9333 79.7234 14.3453 80.4034 13.6733C81.0834 13.0013 81.5874 12.2533 81.9154 11.4293C82.2434 10.5973 82.4074 9.70133 82.4074 8.74133V8.58533ZM78.3154 8.58533H82.8274V9.38933H78.3154V8.58533Z" fill="#E2E2E9"/>
</g>
</g>
</g>
</g>
</g>
</g>
</g>
<defs>
<filter id="filter0_d_0_1" x="-105" y="-883.333" width="744.02" height="942" filterUnits="userSpaceOnUse" color-interpolation-filters="sRGB">
<feFlood flood-opacity="0" result="BackgroundImageFix"/>
<feColorMatrix in="SourceAlpha" type="matrix" values="0 0 0 0 0 0 0 0 0 0 0 0 0 0 0 0 0 0 127 0" result="hardAlpha"/>
<feOffset/>
<feGaussianBlur stdDeviation="7.5"/>
<feComposite in2="hardAlpha" operator="out"/>
<feColorMatrix type="matrix" values="0 0 0 0 0.482353 0 0 0 0 0.654902 0 0 0 0 0.960784 0 0 0 0.2 0"/>
<feBlend mode="normal" in2="BackgroundImageFix" result="effect1_dropShadow_0_1"/>
<feBlend mode="normal" in="SourceGraphic" in2="effect1_dropShadow_0_1" result="shape"/>
</filter>
<linearGradient id="paint0_linear_0_1" x1="356.01" y1="58.6667" x2="356.01" y2="0" gradientUnits="userSpaceOnUse">
<stop stop-color="#111318" stop-opacity="0.9"/>
<stop offset="1" stop-color="#111318" stop-opacity="0"/>
</linearGradient>
</defs>
</svg>
