<svg width="18" height="18" viewBox="0 0 18 18" fill="none" xmlns="http://www.w3.org/2000/svg">
<rect width="18" height="18" fill="#CEE0FF"/>
<g id="&#234;&#180;&#128;&#235;&#166;&#172;&#236;&#158;&#144;">
<path d="M-256 -319.133C-256 -321.926 -253.736 -324.19 -250.943 -324.19H3764.94C3767.74 -324.19 3770 -321.926 3770 -319.133V886.753C3770 889.546 3767.74 891.81 3764.94 891.81H-250.943C-253.736 891.81 -256 889.546 -256 886.753V-319.133Z" fill="white"/>
<path d="M-250.943 -324.19V-321.661H3764.94V-324.19V-326.719H-250.943V-324.19ZM3770 -319.133H3767.47V886.753H3770H3772.53V-319.133H3770ZM3764.94 891.81V889.281H-250.943V891.81V894.339H3764.94V891.81ZM-256 886.753H-253.471V-319.133H-256H-258.529V886.753H-256ZM-250.943 891.81V889.281C-252.339 889.281 -253.471 888.149 -253.471 886.753H-256H-258.529C-258.529 890.942 -255.132 894.339 -250.943 894.339V891.81ZM3770 886.753H3767.47C3767.47 888.149 3766.34 889.281 3764.94 889.281V891.81V894.339C3769.13 894.339 3772.53 890.942 3772.53 886.753H3770ZM3764.94 -324.19V-321.661C3766.34 -321.661 3767.47 -320.529 3767.47 -319.133H3770H3772.53C3772.53 -323.322 3769.13 -326.719 3764.94 -326.719V-324.19ZM-250.943 -324.19V-326.719C-255.132 -326.719 -258.529 -323.322 -258.529 -319.133H-256H-253.471C-253.471 -320.529 -252.339 -321.661 -250.943 -321.661V-324.19Z" fill="black" fill-opacity="0.1"/>
<g id="Html &#226;&#134;&#146; Body">
<rect width="1280" height="1024" transform="translate(-32 -228.19)" fill="white"/>
<rect width="1280" height="1024" transform="translate(-32 -228.19)" fill="#0D0F14"/>
<g id="SideNavBar">
<mask id="path-3-inside-1_0_1" fill="white">
<path d="M-32 -164.19H224V795.81H-32V-164.19Z"/>
</mask>
<path d="M-32 -164.19H224V795.81H-32V-164.19Z" fill="#1A1B21"/>
<path d="M224 -164.19H223V795.81H224H225V-164.19H224Z" fill="#424751" fill-opacity="0.2" mask="url(#path-3-inside-1_0_1)"/>
<g id="Navigation Links">
<g id="Link">
<g id="Container">
<path id="Icon" d="M9 18C6.7 18 4.69583 17.2375 2.9875 15.7125C1.27917 14.1875 0.3 12.2833 0.05 10H2.1C2.33333 11.7333 3.10417 13.1667 4.4125 14.3C5.72083 15.4333 7.25 16 9 16C10.95 16 12.6042 15.3208 13.9625 13.9625C15.3208 12.6042 16 10.95 16 9C16 7.05 15.3208 5.39583 13.9625 4.0375C12.6042 2.67917 10.95 2 9 2C7.85 2 6.775 2.26667 5.775 2.8C4.775 3.33333 3.93333 4.06667 3.25 5H6V7H0V1H2V3.35C2.85 2.28333 3.8875 1.45833 5.1125 0.875C6.3375 0.291667 7.63333 0 9 0C10.25 0 11.4208 0.2375 12.5125 0.7125C13.6042 1.1875 14.5542 1.82917 15.3625 2.6375C16.1708 3.44583 16.8125 4.39583 17.2875 5.4875C17.7625 6.57917 18 7.75 18 9C18 10.25 17.7625 11.4208 17.2875 12.5125C16.8125 13.6042 16.1708 14.5542 15.3625 15.3625C14.5542 16.1708 13.6042 16.8125 12.5125 17.2875C11.4208 17.7625 10.25 18 9 18ZM11.8 13.2L8 9.4V4H10V8.6L13.2 11.8L11.8 13.2Z" fill="#C3C6D2"/>
</g>
</g>
</g>
</g>
</g>
</g>
</svg>
