<svg width="20" height="19" viewBox="0 0 20 19" fill="none" xmlns="http://www.w3.org/2000/svg">
<rect width="20" height="19" fill="#CEE0FF"/>
<g id="&#235;&#179;&#180;&#237;&#152;&#184;&#236;&#158;&#144;">
<path d="M-256 -337.443C-256 -340.236 -253.736 -342.5 -250.943 -342.5H3764.94C3767.74 -342.5 3770 -340.236 3770 -337.443V868.443C3770 871.236 3767.74 873.5 3764.94 873.5H-250.943C-253.736 873.5 -256 871.236 -256 868.443V-337.443Z" fill="white"/>
<path d="M-250.943 -342.5V-339.971H3764.94V-342.5V-345.029H-250.943V-342.5ZM3770 -337.443H3767.47V868.443H3770H3772.53V-337.443H3770ZM3764.94 873.5V870.971H-250.943V873.5V876.029H3764.94V873.5ZM-256 868.443H-253.471V-337.443H-256H-258.529V868.443H-256ZM-250.943 873.5V870.971C-252.339 870.971 -253.471 869.839 -253.471 868.443H-256H-258.529C-258.529 872.632 -255.132 876.029 -250.943 876.029V873.5ZM3770 868.443H3767.47C3767.47 869.839 3766.34 870.971 3764.94 870.971V873.5V876.029C3769.13 876.029 3772.53 872.632 3772.53 868.443H3770ZM3764.94 -342.5V-339.971C3766.34 -339.971 3767.47 -338.839 3767.47 -337.443H3770H3772.53C3772.53 -341.632 3769.13 -345.029 3764.94 -345.029V-342.5ZM-250.943 -342.5V-345.029C-255.132 -345.029 -258.529 -341.632 -258.529 -337.443H-256H-253.471C-253.471 -338.839 -252.339 -339.971 -250.943 -339.971V-342.5Z" fill="black" fill-opacity="0.1"/>
<g id="Html &#226;&#134;&#146; Body">
<rect width="1280" height="1024" transform="translate(-32 -246.5)" fill="white"/>
<rect width="1280" height="1024" transform="translate(-32 -246.5)" fill="#111318"/>
<g id="SideNavBar">
<mask id="path-3-inside-1_0_1" fill="white">
<path d="M-32 -182.5H224V777.5H-32V-182.5Z"/>
</mask>
<path d="M-32 -182.5H224V777.5H-32V-182.5Z" fill="#1A1B21"/>
<path d="M224 -182.5H223V777.5H224H225V-182.5H224Z" fill="#424751" fill-opacity="0.2" mask="url(#path-3-inside-1_0_1)"/>
<g id="List - Tabs">
<g id="Item &#226;&#134;&#146; Link">
<g id="Container">
<path id="Icon" d="M2.5 9C1.8 9 1.20833 8.75833 0.725 8.275C0.241667 7.79167 0 7.2 0 6.5C0 5.8 0.241667 5.20833 0.725 4.725C1.20833 4.24167 1.8 4 2.5 4C3.2 4 3.79167 4.24167 4.275 4.725C4.75833 5.20833 5 5.8 5 6.5C5 7.2 4.75833 7.79167 4.275 8.275C3.79167 8.75833 3.2 9 2.5 9ZM7 5C6.3 5 5.70833 4.75833 5.225 4.275C4.74167 3.79167 4.5 3.2 4.5 2.5C4.5 1.8 4.74167 1.20833 5.225 0.725C5.70833 0.241667 6.3 0 7 0C7.7 0 8.29167 0.241667 8.775 0.725C9.25833 1.20833 9.5 1.8 9.5 2.5C9.5 3.2 9.25833 3.79167 8.775 4.275C8.29167 4.75833 7.7 5 7 5ZM13 5C12.3 5 11.7083 4.75833 11.225 4.275C10.7417 3.79167 10.5 3.2 10.5 2.5C10.5 1.8 10.7417 1.20833 11.225 0.725C11.7083 0.241667 12.3 0 13 0C13.7 0 14.2917 0.241667 14.775 0.725C15.2583 1.20833 15.5 1.8 15.5 2.5C15.5 3.2 15.2583 3.79167 14.775 4.275C14.2917 4.75833 13.7 5 13 5ZM17.5 9C16.8 9 16.2083 8.75833 15.725 8.275C15.2417 7.79167 15 7.2 15 6.5C15 5.8 15.2417 5.20833 15.725 4.725C16.2083 4.24167 16.8 4 17.5 4C18.2 4 18.7917 4.24167 19.275 4.725C19.7583 5.20833 20 5.8 20 6.5C20 7.2 19.7583 7.79167 19.275 8.275C18.7917 8.75833 18.2 9 17.5 9ZM4.65 19C3.9 19 3.27083 18.7125 2.7625 18.1375C2.25417 17.5625 2 16.8833 2 16.1C2 15.2333 2.29583 14.475 2.8875 13.825C3.47917 13.175 4.06667 12.5333 4.65 11.9C5.13333 11.3833 5.55 10.8208 5.9 10.2125C6.25 9.60417 6.66667 9.03333 7.15 8.5C7.51667 8.06667 7.94167 7.70833 8.425 7.425C8.90833 7.14167 9.43333 7 10 7C10.5667 7 11.0917 7.13333 11.575 7.4C12.0583 7.66667 12.4833 8.01667 12.85 8.45C13.3167 8.98333 13.7292 9.55833 14.0875 10.175C14.4458 10.7917 14.8667 11.3667 15.35 11.9C15.9333 12.5333 16.5208 13.175 17.1125 13.825C17.7042 14.475 18 15.2333 18 16.1C18 16.8833 17.7458 17.5625 17.2375 18.1375C16.7292 18.7125 16.1 19 15.35 19C14.45 19 13.5583 18.925 12.675 18.775C11.7917 18.625 10.9 18.55 10 18.55C9.1 18.55 8.20833 18.625 7.325 18.775C6.44167 18.925 5.55 19 4.65 19Z" fill="#C3C6D2"/>
</g>
</g>
</g>
</g>
</g>
</g>
</svg>
