<svg width="21" height="20" viewBox="0 0 21 20" fill="none" xmlns="http://www.w3.org/2000/svg">
<rect width="21" height="20" fill="#CEE0FF"/>
<g id="&#235;&#179;&#180;&#237;&#152;&#184;&#236;&#158;&#144;">
<path d="M-256 -444.943C-256 -447.736 -253.736 -450 -250.943 -450H3764.94C3767.74 -450 3770 -447.736 3770 -444.943V760.943C3770 763.736 3767.74 766 3764.94 766H-250.943C-253.736 766 -256 763.736 -256 760.943V-444.943Z" fill="white"/>
<path d="M-250.943 -450V-447.471H3764.94V-450V-452.529H-250.943V-450ZM3770 -444.943H3767.47V760.943H3770H3772.53V-444.943H3770ZM3764.94 766V763.471H-250.943V766V768.529H3764.94V766ZM-256 760.943H-253.471V-444.943H-256H-258.529V760.943H-256ZM-250.943 766V763.471C-252.339 763.471 -253.471 762.339 -253.471 760.943H-256H-258.529C-258.529 765.132 -255.132 768.529 -250.943 768.529V766ZM3770 760.943H3767.47C3767.47 762.339 3766.34 763.471 3764.94 763.471V766V768.529C3769.13 768.529 3772.53 765.132 3772.53 760.943H3770ZM3764.94 -450V-447.471C3766.34 -447.471 3767.47 -446.339 3767.47 -444.943H3770H3772.53C3772.53 -449.132 3769.13 -452.529 3764.94 -452.529V-450ZM-250.943 -450V-452.529C-255.132 -452.529 -258.529 -449.132 -258.529 -444.943H-256H-253.471C-253.471 -446.339 -252.339 -447.471 -250.943 -447.471V-450Z" fill="black" fill-opacity="0.1"/>
<g id="Html &#226;&#134;&#146; Body">
<rect width="1280" height="1024" transform="translate(-32 -354)" fill="white"/>
<rect width="1280" height="1024" transform="translate(-32 -354)" fill="#111318"/>
<g id="SideNavBar">
<mask id="path-3-inside-1_0_1" fill="white">
<path d="M-32 -290H224V670H-32V-290Z"/>
</mask>
<path d="M-32 -290H224V670H-32V-290Z" fill="#1A1B21"/>
<path d="M224 -290H223V670H224H225V-290H224Z" fill="#424751" fill-opacity="0.2" mask="url(#path-3-inside-1_0_1)"/>
<g id="List - Tabs">
<g id="Item &#226;&#134;&#146; Link">
<g id="Container">
<path id="Icon" d="M7.3 20L6.9 16.8C6.68333 16.7167 6.47917 16.6167 6.2875 16.5C6.09583 16.3833 5.90833 16.2583 5.725 16.125L2.75 17.375L0 12.625L2.575 10.675C2.55833 10.5583 2.55 10.4458 2.55 10.3375C2.55 10.2292 2.55 10.1167 2.55 10C2.55 9.88333 2.55 9.77083 2.55 9.6625C2.55 9.55417 2.55833 9.44167 2.575 9.325L0 7.375L2.75 2.625L5.725 3.875C5.90833 3.74167 6.1 3.61667 6.3 3.5C6.5 3.38333 6.7 3.28333 6.9 3.2L7.3 0H12.8L13.2 3.2C13.4167 3.28333 13.6208 3.38333 13.8125 3.5C14.0042 3.61667 14.1917 3.74167 14.375 3.875L17.35 2.625L20.1 7.375L17.525 9.325C17.5417 9.44167 17.55 9.55417 17.55 9.6625C17.55 9.77083 17.55 9.88333 17.55 10C17.55 10.1167 17.55 10.2292 17.55 10.3375C17.55 10.4458 17.5333 10.5583 17.5 10.675L20.075 12.625L17.325 17.375L14.375 16.125C14.1917 16.2583 14 16.3833 13.8 16.5C13.6 16.6167 13.4 16.7167 13.2 16.8L12.8 20H7.3ZM9.05 18H11.025L11.375 15.35C11.8917 15.2167 12.3708 15.0208 12.8125 14.7625C13.2542 14.5042 13.6583 14.1917 14.025 13.825L16.5 14.85L17.475 13.15L15.325 11.525C15.4083 11.2917 15.4667 11.0458 15.5 10.7875C15.5333 10.5292 15.55 10.2667 15.55 10C15.55 9.73333 15.5333 9.47083 15.5 9.2125C15.4667 8.95417 15.4083 8.70833 15.325 8.475L17.475 6.85L16.5 5.15L14.025 6.2C13.6583 5.81667 13.2542 5.49583 12.8125 5.2375C12.3708 4.97917 11.8917 4.78333 11.375 4.65L11.05 2H9.075L8.725 4.65C8.20833 4.78333 7.72917 4.97917 7.2875 5.2375C6.84583 5.49583 6.44167 5.80833 6.075 6.175L3.6 5.15L2.625 6.85L4.775 8.45C4.69167 8.7 4.63333 8.95 4.6 9.2C4.56667 9.45 4.55 9.71667 4.55 10C4.55 10.2667 4.56667 10.525 4.6 10.775C4.63333 11.025 4.69167 11.275 4.775 11.525L2.625 13.15L3.6 14.85L6.075 13.8C6.44167 14.1833 6.84583 14.5042 7.2875 14.7625C7.72917 15.0208 8.20833 15.2167 8.725 15.35L9.05 18ZM10.1 13.5C11.0667 13.5 11.8917 13.1583 12.575 12.475C13.2583 11.7917 13.6 10.9667 13.6 10C13.6 9.03333 13.2583 8.20833 12.575 7.525C11.8917 6.84167 11.0667 6.5 10.1 6.5C9.11667 6.5 8.2875 6.84167 7.6125 7.525C6.9375 8.20833 6.6 9.03333 6.6 10C6.6 10.9667 6.9375 11.7917 7.6125 12.475C8.2875 13.1583 9.11667 13.5 10.1 13.5Z" fill="#C3C6D2"/>
</g>
</g>
</g>
</g>
</g>
</g>
</svg>
