<svg width="20" height="16" viewBox="0 0 20 16" fill="none" xmlns="http://www.w3.org/2000/svg">
<rect width="20" height="16" fill="#CEE0FF"/>
<g id="&#234;&#180;&#128;&#235;&#166;&#172;&#236;&#158;&#144;">
<path d="M-256 -271.133C-256 -273.926 -253.736 -276.19 -250.943 -276.19H3764.94C3767.74 -276.19 3770 -273.926 3770 -271.133V934.753C3770 937.546 3767.74 939.81 3764.94 939.81H-250.943C-253.736 939.81 -256 937.546 -256 934.753V-271.133Z" fill="white"/>
<path d="M-250.943 -276.19V-273.661H3764.94V-276.19V-278.719H-250.943V-276.19ZM3770 -271.133H3767.47V934.753H3770H3772.53V-271.133H3770ZM3764.94 939.81V937.281H-250.943V939.81V942.339H3764.94V939.81ZM-256 934.753H-253.471V-271.133H-256H-258.529V934.753H-256ZM-250.943 939.81V937.281C-252.339 937.281 -253.471 936.149 -253.471 934.753H-256H-258.529C-258.529 938.942 -255.132 942.339 -250.943 942.339V939.81ZM3770 934.753H3767.47C3767.47 936.149 3766.34 937.281 3764.94 937.281V939.81V942.339C3769.13 942.339 3772.53 938.942 3772.53 934.753H3770ZM3764.94 -276.19V-273.661C3766.34 -273.661 3767.47 -272.529 3767.47 -271.133H3770H3772.53C3772.53 -275.322 3769.13 -278.719 3764.94 -278.719V-276.19ZM-250.943 -276.19V-278.719C-255.132 -278.719 -258.529 -275.322 -258.529 -271.133H-256H-253.471C-253.471 -272.529 -252.339 -273.661 -250.943 -273.661V-276.19Z" fill="black" fill-opacity="0.1"/>
<g id="Html &#226;&#134;&#146; Body">
<rect width="1280" height="1024" transform="translate(-32 -180.19)" fill="white"/>
<rect width="1280" height="1024" transform="translate(-32 -180.19)" fill="#0D0F14"/>
<g id="SideNavBar">
<mask id="path-3-inside-1_0_1" fill="white">
<path d="M-32 -116.19H224V843.81H-32V-116.19Z"/>
</mask>
<path d="M-32 -116.19H224V843.81H-32V-116.19Z" fill="#1A1B21"/>
<path d="M224 -116.19H223V843.81H224H225V-116.19H224Z" fill="#424751" fill-opacity="0.2" mask="url(#path-3-inside-1_0_1)"/>
<g id="Navigation Links">
<g id="Link">
<rect x="-16" y="-12" width="223" height="40" rx="8" fill="#284A79"/>
<g id="Container">
<path id="Icon" d="M2 16C1.45 16 0.979167 15.8042 0.5875 15.4125C0.195833 15.0208 0 14.55 0 14V2C0 1.45 0.195833 0.979167 0.5875 0.5875C0.979167 0.195833 1.45 0 2 0H14C14.55 0 15.0208 0.195833 15.4125 0.5875C15.8042 0.979167 16 1.45 16 2V6.5L20 2.5V13.5L16 9.5V14C16 14.55 15.8042 15.0208 15.4125 15.4125C15.0208 15.8042 14.55 16 14 16H2Z" fill="#9ABAF0"/>
</g>
</g>
</g>
</g>
</g>
</g>
</svg>
