<svg width="18" height="18" viewBox="0 0 18 18" fill="none" xmlns="http://www.w3.org/2000/svg">
<rect width="18" height="18" fill="#CEE0FF"/>
<g id="&#235;&#179;&#180;&#237;&#152;&#184;&#236;&#158;&#144;">
<path d="M-256 -283.943C-256 -286.736 -253.736 -289 -250.943 -289H3764.94C3767.74 -289 3770 -286.736 3770 -283.943V921.943C3770 924.736 3767.74 927 3764.94 927H-250.943C-253.736 927 -256 924.736 -256 921.943V-283.943Z" fill="white"/>
<path d="M-250.943 -289V-286.471H3764.94V-289V-291.529H-250.943V-289ZM3770 -283.943H3767.47V921.943H3770H3772.53V-283.943H3770ZM3764.94 927V924.471H-250.943V927V929.529H3764.94V927ZM-256 921.943H-253.471V-283.943H-256H-258.529V921.943H-256ZM-250.943 927V924.471C-252.339 924.471 -253.471 923.339 -253.471 921.943H-256H-258.529C-258.529 926.132 -255.132 929.529 -250.943 929.529V927ZM3770 921.943H3767.47C3767.47 923.339 3766.34 924.471 3764.94 924.471V927V929.529C3769.13 929.529 3772.53 926.132 3772.53 921.943H3770ZM3764.94 -289V-286.471C3766.34 -286.471 3767.47 -285.339 3767.47 -283.943H3770H3772.53C3772.53 -288.132 3769.13 -291.529 3764.94 -291.529V-289ZM-250.943 -289V-291.529C-255.132 -291.529 -258.529 -288.132 -258.529 -283.943H-256H-253.471C-253.471 -285.339 -252.339 -286.471 -250.943 -286.471V-289Z" fill="black" fill-opacity="0.1"/>
<g id="Html &#226;&#134;&#146; Body">
<rect width="1280" height="1024" transform="translate(-32 -193)" fill="white"/>
<rect width="1280" height="1024" transform="translate(-32 -193)" fill="#111318"/>
<g id="SideNavBar">
<mask id="path-3-inside-1_0_1" fill="white">
<path d="M-32 -129H224V831H-32V-129Z"/>
</mask>
<path d="M-32 -129H224V831H-32V-129Z" fill="#1A1B21"/>
<path d="M224 -129H223V831H224H225V-129H224Z" fill="#424751" fill-opacity="0.2" mask="url(#path-3-inside-1_0_1)"/>
<g id="List - Tabs">
<g id="Item - Active Tab: &#237;&#153;&#156;&#235;&#143;&#153; &#234;&#184;&#176;&#235;&#161;&#157; (Matching Daily Summary Intent) &#226;&#134;&#146; Link">
<rect x="-16" y="-16" width="223" height="50" rx="8" fill="#284A79"/>
<g id="Container">
<path id="Icon" d="M9 18C6.7 18 4.69583 17.2375 2.9875 15.7125C1.27917 14.1875 0.3 12.2833 0.05 10H2.1C2.33333 11.7333 3.10417 13.1667 4.4125 14.3C5.72083 15.4333 7.25 16 9 16C10.95 16 12.6042 15.3208 13.9625 13.9625C15.3208 12.6042 16 10.95 16 9C16 7.05 15.3208 5.39583 13.9625 4.0375C12.6042 2.67917 10.95 2 9 2C7.85 2 6.775 2.26667 5.775 2.8C4.775 3.33333 3.93333 4.06667 3.25 5H6V7H0V1H2V3.35C2.85 2.28333 3.8875 1.45833 5.1125 0.875C6.3375 0.291667 7.63333 0 9 0C10.25 0 11.4208 0.2375 12.5125 0.7125C13.6042 1.1875 14.5542 1.82917 15.3625 2.6375C16.1708 3.44583 16.8125 4.39583 17.2875 5.4875C17.7625 6.57917 18 7.75 18 9C18 10.25 17.7625 11.4208 17.2875 12.5125C16.8125 13.6042 16.1708 14.5542 15.3625 15.3625C14.5542 16.1708 13.6042 16.8125 12.5125 17.2875C11.4208 17.7625 10.25 18 9 18ZM11.8 13.2L8 9.4V4H10V8.6L13.2 11.8L11.8 13.2Z" fill="#9ABAF0"/>
</g>
</g>
</g>
</g>
</g>
</g>
</svg>
