<svg width="18" height="18" viewBox="0 0 18 18" fill="none" xmlns="http://www.w3.org/2000/svg">
<rect width="18" height="18" fill="#CEE0FF"/>
<g id="&#235;&#179;&#180;&#237;&#152;&#184;&#236;&#158;&#144;">
<path d="M-256 -391.943C-256 -394.736 -253.736 -397 -250.943 -397H3764.94C3767.74 -397 3770 -394.736 3770 -391.943V813.943C3770 816.736 3767.74 819 3764.94 819H-250.943C-253.736 819 -256 816.736 -256 813.943V-391.943Z" fill="white"/>
<path d="M-250.943 -397V-394.471H3764.94V-397V-399.529H-250.943V-397ZM3770 -391.943H3767.47V813.943H3770H3772.53V-391.943H3770ZM3764.94 819V816.471H-250.943V819V821.529H3764.94V819ZM-256 813.943H-253.471V-391.943H-256H-258.529V813.943H-256ZM-250.943 819V816.471C-252.339 816.471 -253.471 815.339 -253.471 813.943H-256H-258.529C-258.529 818.132 -255.132 821.529 -250.943 821.529V819ZM3770 813.943H3767.47C3767.47 815.339 3766.34 816.471 3764.94 816.471V819V821.529C3769.13 821.529 3772.53 818.132 3772.53 813.943H3770ZM3764.94 -397V-394.471C3766.34 -394.471 3767.47 -393.339 3767.47 -391.943H3770H3772.53C3772.53 -396.132 3769.13 -399.529 3764.94 -399.529V-397ZM-250.943 -397V-399.529C-255.132 -399.529 -258.529 -396.132 -258.529 -391.943H-256H-253.471C-253.471 -393.339 -252.339 -394.471 -250.943 -394.471V-397Z" fill="black" fill-opacity="0.1"/>
<g id="Html &#226;&#134;&#146; Body">
<rect width="1280" height="1024" transform="translate(-32 -301)" fill="white"/>
<rect width="1280" height="1024" transform="translate(-32 -301)" fill="#111318"/>
<g id="SideNavBar">
<mask id="path-3-inside-1_0_1" fill="white">
<path d="M-32 -237H224V723H-32V-237Z"/>
</mask>
<path d="M-32 -237H224V723H-32V-237Z" fill="#1A1B21"/>
<path d="M224 -237H223V723H224H225V-237H224Z" fill="#424751" fill-opacity="0.2" mask="url(#path-3-inside-1_0_1)"/>
<g id="List - Tabs">
<g id="Item &#226;&#134;&#146; Link">
<g id="Container">
<path id="Icon" d="M9 18V16H16V2H9V0H16C16.55 0 17.0208 0.195833 17.4125 0.5875C17.8042 0.979167 18 1.45 18 2V16C18 16.55 17.8042 17.0208 17.4125 17.4125C17.0208 17.8042 16.55 18 16 18H9ZM7 14L5.625 12.55L8.175 10H0V8H8.175L5.625 5.45L7 4L12 9L7 14Z" fill="#C3C6D2"/>
</g>
</g>
</g>
</g>
</g>
</g>
</svg>
