<svg width="18" height="18" viewBox="0 0 18 18" fill="none" xmlns="http://www.w3.org/2000/svg">
<rect width="18" height="18" fill="#CEE0FF"/>
<g id="&#234;&#180;&#128;&#235;&#166;&#172;&#236;&#158;&#144;">
<path d="M-256 -420.133C-256 -422.926 -253.736 -425.19 -250.943 -425.19H3764.94C3767.74 -425.19 3770 -422.926 3770 -420.133V785.753C3770 788.546 3767.74 790.81 3764.94 790.81H-250.943C-253.736 790.81 -256 788.546 -256 785.753V-420.133Z" fill="white"/>
<path d="M-250.943 -425.19V-422.661H3764.94V-425.19V-427.719H-250.943V-425.19ZM3770 -420.133H3767.47V785.753H3770H3772.53V-420.133H3770ZM3764.94 790.81V788.281H-250.943V790.81V793.339H3764.94V790.81ZM-256 785.753H-253.471V-420.133H-256H-258.529V785.753H-256ZM-250.943 790.81V788.281C-252.339 788.281 -253.471 787.149 -253.471 785.753H-256H-258.529C-258.529 789.942 -255.132 793.339 -250.943 793.339V790.81ZM3770 785.753H3767.47C3767.47 787.149 3766.34 788.281 3764.94 788.281V790.81V793.339C3769.13 793.339 3772.53 789.942 3772.53 785.753H3770ZM3764.94 -425.19V-422.661C3766.34 -422.661 3767.47 -421.529 3767.47 -420.133H3770H3772.53C3772.53 -424.322 3769.13 -427.719 3764.94 -427.719V-425.19ZM-250.943 -425.19V-427.719C-255.132 -427.719 -258.529 -424.322 -258.529 -420.133H-256H-253.471C-253.471 -421.529 -252.339 -422.661 -250.943 -422.661V-425.19Z" fill="black" fill-opacity="0.1"/>
<g id="Html &#226;&#134;&#146; Body">
<rect width="1280" height="1024" transform="translate(-32 -329.19)" fill="white"/>
<rect width="1280" height="1024" transform="translate(-32 -329.19)" fill="#0D0F14"/>
<g id="SideNavBar">
<mask id="path-3-inside-1_0_1" fill="white">
<path d="M-32 -265.19H224V694.81H-32V-265.19Z"/>
</mask>
<path d="M-32 -265.19H224V694.81H-32V-265.19Z" fill="#1A1B21"/>
<path d="M224 -265.19H223V694.81H224H225V-265.19H224Z" fill="#424751" fill-opacity="0.2" mask="url(#path-3-inside-1_0_1)"/>
<g id="Navigation Links">
<g id="Link">
<g id="Container">
<path id="Icon" d="M9 18V16H16V2H9V0H16C16.55 0 17.0208 0.195833 17.4125 0.5875C17.8042 0.979167 18 1.45 18 2V16C18 16.55 17.8042 17.0208 17.4125 17.4125C17.0208 17.8042 16.55 18 16 18H9ZM7 14L5.625 12.55L8.175 10H0V8H8.175L5.625 5.45L7 4L12 9L7 14Z" fill="#C3C6D2"/>
</g>
</g>
</g>
</g>
</g>
</g>
</svg>
