<svg width="572" height="489" viewBox="0 0 572 489" fill="none" xmlns="http://www.w3.org/2000/svg">

<g id="&#235;&#161;&#156;&#234;&#179;&#160;">
<g id="Vector">
<g id="Vector_2">
<path d="M407.222 334.976C407.222 382.499 355.512 393.354 283.206 393.354C210.899 393.354 165.495 382.499 165.495 334.976C165.495 287.453 210.899 221.258 283.206 221.258C355.512 221.258 407.222 287.453 407.222 334.976Z" fill="url(#paint0_linear_9_2)"/>
<path d="M127 226.353C127 248.239 144.457 265.98 161.912 265.98C179.367 265.98 193.517 248.239 193.517 226.353C193.517 204.468 179.367 186.726 161.912 186.726C144.457 186.726 127 204.468 127 226.353Z" fill="url(#paint1_linear_9_2)"/>
<path d="M446 226.353C446 204.468 428.543 186.726 411.088 186.726C393.633 186.726 379.483 204.468 379.483 226.353C379.483 248.239 393.633 265.98 411.088 265.98C428.543 265.98 446 248.239 446 226.353Z" fill="url(#paint2_linear_9_2)"/>
<path d="M372.689 157.854C372.689 183.179 352.335 203.709 331.983 203.709C311.632 203.709 295.133 183.179 295.133 157.854C295.133 132.53 311.632 112 331.983 112C352.335 112 372.689 132.53 372.689 157.854Z" fill="url(#paint3_linear_9_2)"/>
<path d="M200.311 157.854C200.311 183.179 220.665 203.709 241.017 203.709C261.368 203.709 277.867 183.179 277.867 157.854C277.867 132.53 261.368 112 241.017 112C220.665 112 200.311 132.53 200.311 157.854Z" fill="url(#paint4_linear_9_2)"/>
<path d="M346.649 307.306C346.649 340.447 319.783 367.313 286.642 367.313C253.501 367.313 226.634 340.447 226.634 307.306C226.634 274.165 253.501 247.299 286.642 247.299C319.783 247.299 346.649 274.165 346.649 307.306Z" fill="url(#paint5_linear_9_2)"/>
<path d="M335.893 307.306C335.893 334.507 313.842 356.557 286.642 356.557C259.441 356.557 237.39 334.507 237.39 307.306C237.39 280.105 259.441 258.055 286.642 258.055C313.842 258.055 335.893 280.105 335.893 307.306Z" fill="url(#paint6_linear_9_2)"/>
<path d="M327.967 307.306C327.967 330.13 309.465 348.632 286.642 348.632C263.818 348.632 245.316 330.13 245.316 307.306C245.316 284.483 263.818 265.98 286.642 265.98C309.465 265.98 327.967 284.483 327.967 307.306Z" fill="url(#paint7_linear_9_2)"/>
<path d="M315.513 288.059C315.513 292.748 311.711 296.55 307.021 296.55C302.332 296.55 298.53 292.748 298.53 288.059C298.53 283.369 302.332 279.567 307.021 279.567C311.711 279.567 315.513 283.369 315.513 288.059Z" fill="white"/>
</g>
</g>
</g>
<defs>
<linearGradient id="paint0_linear_9_2" x1="286.5" y1="112" x2="286.5" y2="393.354" gradientUnits="userSpaceOnUse">
<stop stop-color="#7BA7F5"/>
<stop offset="1" stop-color="#ABC7FF"/>
</linearGradient>
<linearGradient id="paint1_linear_9_2" x1="286.5" y1="112" x2="286.5" y2="393.354" gradientUnits="userSpaceOnUse">
<stop stop-color="#7BA7F5"/>
<stop offset="1" stop-color="#ABC7FF"/>
</linearGradient>
<linearGradient id="paint2_linear_9_2" x1="286.5" y1="112" x2="286.5" y2="393.354" gradientUnits="userSpaceOnUse">
<stop stop-color="#7BA7F5"/>
<stop offset="1" stop-color="#ABC7FF"/>
</linearGradient>
<linearGradient id="paint3_linear_9_2" x1="286.5" y1="112" x2="286.5" y2="393.354" gradientUnits="userSpaceOnUse">
<stop stop-color="#7BA7F5"/>
<stop offset="1" stop-color="#ABC7FF"/>
</linearGradient>
<linearGradient id="paint4_linear_9_2" x1="286.5" y1="112" x2="286.5" y2="393.354" gradientUnits="userSpaceOnUse">
<stop stop-color="#7BA7F5"/>
<stop offset="1" stop-color="#ABC7FF"/>
</linearGradient>
<linearGradient id="paint5_linear_9_2" x1="346.649" y1="307.306" x2="226.634" y2="307.306" gradientUnits="userSpaceOnUse">
<stop stop-color="#17253B"/>
<stop offset="1" stop-color="#43516A"/>
</linearGradient>
<linearGradient id="paint6_linear_9_2" x1="335.893" y1="307.306" x2="237.39" y2="307.306" gradientUnits="userSpaceOnUse">
<stop stop-color="#43516A"/>
<stop offset="1" stop-color="#708099"/>
</linearGradient>
<linearGradient id="paint7_linear_9_2" x1="327.967" y1="307.306" x2="245.316" y2="307.306" gradientUnits="userSpaceOnUse">
<stop stop-color="#26334A"/>
<stop offset="1" stop-color="#55647E"/>
</linearGradient>
</defs>
</svg>
